<svg xmlns="http://www.w3.org/2000/svg" width="1024" height="1024" viewBox="0 0 1024 1024">
  <path d="M 423 75 L 422 76 L 421 76 L 420 77 L 419 77 L 418 78 L 417 79 L 416 79 L 415 79 L 414 79 L 413 78 L 412 78 L 411 78 L 410 77 L 409 77 L 408 77 L 407 77 L 406 77 L 405 77 L 404 77 L 403 78 L 402 78 L 401 79 L 400 79 L 399 79 L 398 79 L 397 79 L 396 79 L 395 79 L 394 80 L 393 80 L 392 80 L 391 80 L 390 80 L 389 79 L 388 79 L 387 79 L 386 79 L 385 79 L 384 78 L 383 78 L 382 78 L 381 78 L 380 78 L 379 78 L 378 78 L 377 78 L 376 78 L 375 78 L 374 78 L 373 77 L 372 77 L 371 77 L 370 78 L 369 78 L 368 78 L 367 78 L 366 78 L 365 78 L 364 79 L 363 79 L 362 79 L 361 79 L 360 79 L 359 79 L 358 80 L 357 80 L 356 80 L 355 80 L 354 81 L 353 81 L 352 81 L 351 81 L 350 81 L 349 82 L 348 82 L 347 83 L 346 83 L 345 83 L 344 84 L 343 84 L 342 84 L 341 84 L 340 84 L 339 84 L 338 85 L 337 85 L 336 85 L 335 85 L 334 86 L 333 86 L 332 86 L 331 87 L 330 87 L 329 88 L 328 88 L 327 88 L 326 89 L 325 89 L 324 90 L 323 90 L 322 91 L 321 91 L 320 92 L 319 92 L 318 92 L 317 93 L 316 93 L 315 94 L 314 94 L 313 95 L 312 95 L 311 96 L 310 96 L 309 96 L 308 96 L 307 96 L 306 96 L 305 97 L 304 97 L 303 97 L 302 97 L 301 97 L 300 97 L 299 97 L 298 97 L 297 97 L 296 96 L 295 96 L 294 96 L 293 96 L 292 96 L 291 96 L 290 96 L 289 96 L 288 95 L 287 94 L 286 94 L 285 93 L 284 93 L 283 92 L 282 93 L 281 93 L 280 93 L 279 92 L 278 91 L 277 91 L 276 90 L 275 90 L 274 89 L 273 89 L 272 88 L 271 88 L 270 88 L 269 88 L 268 89 L 267 89 L 266 90 L 265 90 L 264 91 L 263 92 L 263 93 L 262 94 L 262 95 L 262 96 L 262 97 L 262 98 L 263 99 L 263 100 L 263 101 L 263 102 L 262 103 L 261 104 L 260 105 L 259 106 L 258 107 L 257 107 L 256 108 L 255 108 L 254 109 L 253 109 L 252 110 L 251 110 L 250 111 L 249 111 L 248 112 L 247 112 L 246 113 L 245 113 L 244 113 L 243 113 L 242 114 L 241 114 L 240 115 L 239 115 L 238 116 L 237 116 L 236 117 L 235 117 L 235 118 L 234 119 L 234 120 L 233 121 L 233 122 L 232 123 L 231 124 L 230 125 L 229 126 L 228 127 L 227 128 L 226 129 L 226 130 L 226 131 L 225 132 L 225 133 L 224 134 L 224 135 L 223 136 L 222 137 L 222 138 L 221 139 L 220 140 L 220 141 L 219 142 L 219 143 L 218 144 L 218 145 L 217 146 L 217 147 L 217 148 L 217 149 L 217 150 L 217 151 L 217 152 L 217 153 L 217 154 L 217 155 L 218 156 L 218 157 L 218 158 L 218 159 L 218 160 L 217 161 L 216 162 L 215 163 L 214 164 L 214 165 L 213 166 L 212 167 L 211 168 L 210 169 L 209 170 L 208 171 L 207 172 L 206 172 L 205 173 L 204 173 L 203 174 L 202 174 L 201 174 L 200 174 L 199 174 L 198 174 L 197 174 L 196 174 L 195 175 L 194 175 L 193 175 L 192 176 L 191 176 L 190 177 L 189 177 L 188 178 L 187 178 L 187 179 L 186 180 L 186 181 L 186 182 L 185 183 L 184 184 L 183 185 L 182 186 L 181 186 L 180 187 L 179 188 L 178 189 L 178 190 L 178 191 L 177 192 L 177 193 L 177 194 L 176 195 L 175 196 L 174 196 L 173 197 L 172 197 L 171 198 L 170 198 L 169 199 L 168 199 L 168 200 L 167 201 L 167 202 L 167 203 L 167 204 L 167 205 L 167 206 L 166 207 L 165 208 L 164 209 L 163 210 L 162 210 L 161 211 L 160 212 L 160 213 L 159 214 L 158 215 L 158 216 L 158 217 L 157 218 L 156 219 L 155 220 L 154 221 L 153 222 L 152 223 L 151 224 L 150 225 L 150 226 L 150 227 L 150 228 L 150 229 L 149 230 L 149 231 L 149 232 L 148 233 L 147 234 L 146 235 L 145 236 L 144 236 L 143 237 L 142 238 L 142 239 L 142 240 L 141 241 L 141 242 L 140 243 L 140 244 L 140 245 L 140 246 L 139 247 L 138 248 L 137 249 L 136 250 L 135 251 L 134 252 L 133 253 L 133 254 L 133 255 L 133 256 L 133 257 L 133 258 L 132 259 L 132 260 L 131 261 L 130 262 L 129 263 L 129 264 L 129 265 L 129 266 L 129 267 L 129 268 L 129 269 L 129 270 L 129 271 L 130 272 L 130 273 L 130 274 L 130 275 L 131 276 L 132 276 L 133 277 L 134 278 L 135 279 L 136 280 L 136 281 L 136 282 L 136 283 L 136 284 L 136 285 L 136 286 L 136 287 L 136 288 L 137 289 L 137 290 L 137 291 L 137 292 L 136 293 L 135 294 L 135 295 L 135 296 L 135 297 L 135 298 L 135 299 L 135 300 L 135 301 L 136 302 L 137 303 L 137 304 L 137 305 L 137 306 L 136 307 L 136 308 L 136 309 L 136 310 L 136 311 L 135 312 L 135 313 L 134 314 L 134 315 L 133 316 L 133 317 L 132 318 L 131 319 L 130 320 L 129 321 L 129 322 L 128 323 L 128 324 L 128 325 L 127 326 L 127 327 L 127 328 L 127 329 L 127 330 L 126 331 L 125 332 L 124 333 L 123 334 L 122 335 L 121 336 L 121 337 L 121 338 L 120 339 L 120 340 L 120 341 L 120 342 L 120 343 L 120 344 L 120 345 L 120 346 L 120 347 L 121 348 L 122 349 L 123 350 L 123 351 L 124 352 L 125 353 L 126 354 L 126 355 L 127 356 L 128 357 L 128 358 L 128 359 L 128 360 L 128 361 L 128 362 L 127 363 L 127 364 L 126 365 L 126 366 L 126 367 L 126 368 L 126 369 L 126 370 L 126 371 L 126 372 L 127 373 L 128 374 L 129 375 L 130 375 L 131 376 L 132 376 L 133 377 L 134 378 L 135 379 L 136 380 L 137 381 L 138 382 L 139 383 L 139 384 L 139 385 L 140 386 L 140 387 L 140 388 L 141 389 L 141 390 L 141 391 L 142 392 L 143 393 L 143 394 L 144 395 L 145 395 L 146 396 L 147 396 L 148 397 L 149 397 L 150 398 L 151 399 L 152 400 L 153 401 L 154 402 L 155 403 L 156 404 L 157 404 L 158 405 L 159 406 L 160 407 L 161 408 L 161 409 L 162 410 L 162 411 L 162 412 L 162 413 L 162 414 L 162 415 L 162 416 L 163 417 L 164 418 L 165 419 L 165 420 L 166 421 L 167 422 L 167 423 L 167 424 L 167 425 L 167 426 L 167 427 L 167 428 L 168 429 L 169 430 L 170 431 L 171 432 L 172 433 L 173 433 L 174 434 L 175 435 L 176 436 L 177 437 L 178 438 L 179 439 L 180 440 L 181 440 L 182 441 L 183 441 L 184 442 L 185 442 L 186 443 L 187 443 L 188 444 L 189 444 L 190 445 L 191 445 L 192 446 L 193 447 L 194 448 L 195 449 L 196 449 L 197 450 L 198 451 L 199 452 L 200 452 L 201 453 L 202 454 L 203 454 L 204 455 L 205 456 L 206 456 L 207 457 L 208 458 L 209 459 L 210 459 L 211 460 L 212 461 L 213 462 L 214 462 L 215 463 L 216 464 L 217 465 L 218 465 L 219 466 L 220 467 L 221 467 L 222 468 L 223 468 L 224 469 L 225 469 L 226 470 L 227 470 L 228 471 L 229 471 L 230 471 L 231 472 L 232 472 L 233 472 L 234 472 L 235 471 L 236 471 L 237 471 L 238 470 L 239 470 L 240 469 L 241 469 L 242 468 L 243 468 L 244 467 L 245 467 L 246 467 L 247 466 L 248 466 L 249 466 L 250 466 L 251 465 L 252 465 L 253 465 L 254 465 L 255 464 L 256 464 L 257 464 L 258 463 L 259 463 L 260 463 L 261 463 L 262 462 L 263 462 L 264 462 L 265 461 L 266 461 L 267 461 L 268 461 L 269 461 L 270 461 L 271 461 L 272 461 L 273 461 L 274 461 L 275 461 L 276 462 L 277 462 L 278 463 L 279 463 L 280 463 L 281 463 L 282 463 L 283 462 L 284 462 L 285 463 L 286 464 L 287 464 L 288 465 L 289 465 L 290 466 L 291 466 L 292 466 L 293 466 L 294 466 L 295 466 L 296 466 L 297 466 L 298 465 L 299 465 L 300 465 L 301 464 L 302 464 L 303 464 L 304 464 L 305 463 L 306 463 L 307 462 L 308 462 L 309 461 L 310 461 L 311 460 L 312 460 L 313 459 L 314 459 L 315 458 L 316 458 L 317 458 L 318 457 L 319 457 L 320 456 L 321 456 L 322 456 L 323 455 L 324 455 L 325 455 L 326 455 L 327 454 L 328 454 L 329 453 L 330 453 L 331 453 L 332 452 L 333 452 L 334 451 L 335 451 L 336 451 L 337 450 L 338 450 L 339 450 L 340 450 L 341 449 L 342 449 L 343 449 L 344 449 L 345 449 L 346 449 L 347 449 L 348 449 L 349 449 L 350 449 L 351 449 L 352 448 L 353 448 L 354 448 L 355 448 L 356 448 L 357 448 L 358 448 L 359 448 L 360 448 L 361 448 L 362 448 L 363 449 L 364 449 L 365 449 L 366 450 L 367 450 L 368 450 L 369 451 L 370 452 L 371 453 L 372 453 L 373 454 L 374 455 L 375 456 L 376 457 L 376 458 L 376 459 L 376 460 L 376 461 L 377 462 L 378 463 L 378 464 L 379 465 L 379 466 L 380 467 L 381 467 L 382 468 L 383 469 L 384 469 L 385 470 L 386 470 L 387 471 L 388 471 L 389 472 L 390 472 L 391 472 L 392 473 L 393 472 L 394 472 L 395 472 L 396 472 L 397 472 L 398 472 L 399 472 L 400 472 L 401 472 L 402 472 L 403 472 L 404 471 L 405 471 L 406 471 L 407 471 L 408 470 L 409 470 L 410 469 L 411 469 L 412 468 L 413 468 L 414 468 L 415 468 L 416 467 L 417 468 L 417 469 L 417 470 L 417 471 L 417 472 L 417 473 L 418 474 L 419 474 L 420 475 L 421 475 L 422 476 L 423 475 L 424 475 L 425 474 L 426 474 L 427 475 L 427 476 L 428 477 L 428 478 L 428 479 L 428 480 L 427 481 L 427 482 L 427 483 L 426 484 L 425 485 L 425 486 L 425 487 L 425 488 L 424 489 L 424 490 L 424 491 L 424 492 L 424 493 L 424 494 L 424 495 L 424 496 L 424 497 L 424 498 L 423 499 L 423 500 L 423 501 L 423 502 L 422 503 L 422 504 L 422 505 L 421 506 L 420 507 L 420 508 L 420 509 L 420 510 L 420 511 L 420 512 L 420 513 L 419 514 L 419 515 L 418 516 L 418 517 L 418 518 L 418 519 L 418 520 L 418 521 L 418 522 L 418 523 L 418 524 L 417 525 L 417 526 L 417 527 L 417 528 L 417 529 L 417 530 L 417 531 L 417 532 L 418 533 L 418 534 L 418 535 L 419 536 L 420 537 L 420 538 L 421 539 L 422 540 L 422 541 L 423 542 L 424 543 L 425 544 L 426 545 L 427 546 L 428 547 L 429 548 L 430 549 L 431 550 L 432 551 L 433 552 L 433 553 L 433 554 L 434 555 L 434 556 L 435 557 L 436 558 L 437 559 L 438 560 L 439 560 L 440 561 L 441 562 L 442 563 L 443 564 L 444 565 L 445 566 L 446 567 L 447 568 L 447 569 L 448 570 L 449 571 L 450 572 L 451 573 L 452 574 L 452 575 L 453 576 L 454 577 L 455 578 L 455 579 L 456 580 L 456 581 L 457 582 L 457 583 L 457 584 L 458 585 L 458 586 L 458 587 L 458 588 L 458 589 L 458 590 L 459 591 L 459 592 L 460 593 L 460 594 L 461 595 L 461 596 L 462 597 L 462 598 L 462 599 L 462 600 L 462 601 L 462 602 L 461 603 L 461 604 L 461 605 L 461 606 L 461 607 L 461 608 L 461 609 L 461 610 L 462 611 L 462 612 L 463 613 L 464 614 L 464 615 L 465 616 L 466 617 L 467 618 L 468 619 L 469 620 L 469 621 L 470 622 L 471 623 L 471 624 L 470 625 L 470 626 L 469 627 L 468 628 L 468 629 L 468 630 L 468 631 L 468 632 L 468 633 L 468 634 L 468 635 L 468 636 L 469 637 L 470 638 L 471 639 L 471 640 L 472 641 L 472 642 L 473 643 L 473 644 L 473 645 L 473 646 L 473 647 L 473 648 L 473 649 L 473 650 L 473 651 L 473 652 L 472 653 L 472 654 L 471 655 L 470 655 L 469 655 L 468 656 L 467 656 L 466 657 L 465 657 L 464 658 L 463 659 L 463 660 L 462 661 L 462 662 L 462 663 L 461 664 L 461 665 L 460 666 L 460 667 L 459 668 L 459 669 L 458 670 L 458 671 L 458 672 L 457 673 L 457 674 L 456 675 L 456 676 L 456 677 L 455 678 L 455 679 L 455 680 L 454 681 L 454 682 L 453 683 L 453 684 L 453 685 L 452 686 L 452 687 L 452 688 L 452 689 L 451 690 L 451 691 L 451 692 L 451 693 L 450 694 L 450 695 L 450 696 L 449 697 L 449 698 L 449 699 L 448 700 L 448 701 L 448 702 L 448 703 L 448 704 L 448 705 L 448 706 L 447 707 L 447 708 L 447 709 L 447 710 L 447 711 L 447 712 L 447 713 L 447 714 L 447 715 L 447 716 L 447 717 L 448 718 L 448 719 L 448 720 L 448 721 L 448 722 L 448 723 L 449 724 L 449 725 L 449 726 L 450 727 L 450 728 L 451 729 L 451 730 L 451 731 L 452 732 L 453 733 L 453 734 L 454 735 L 455 736 L 455 737 L 456 738 L 456 739 L 457 740 L 457 741 L 458 742 L 459 743 L 459 744 L 460 745 L 461 746 L 461 747 L 462 748 L 463 749 L 463 750 L 464 751 L 465 752 L 465 753 L 466 754 L 466 755 L 467 756 L 468 757 L 468 758 L 469 759 L 469 760 L 470 761 L 470 762 L 471 763 L 471 764 L 472 765 L 473 766 L 473 767 L 473 768 L 474 769 L 474 770 L 475 771 L 475 772 L 476 773 L 476 774 L 477 775 L 477 776 L 478 777 L 478 778 L 478 779 L 479 780 L 479 781 L 479 782 L 479 783 L 478 784 L 478 785 L 478 786 L 478 787 L 478 788 L 478 789 L 478 790 L 478 791 L 478 792 L 478 793 L 478 794 L 478 795 L 478 796 L 478 797 L 478 798 L 478 799 L 478 800 L 478 801 L 479 802 L 479 803 L 479 804 L 479 805 L 479 806 L 479 807 L 480 808 L 480 809 L 480 810 L 480 811 L 480 812 L 481 813 L 481 814 L 481 815 L 482 816 L 482 817 L 482 818 L 482 819 L 483 820 L 483 821 L 484 822 L 484 823 L 485 824 L 485 825 L 486 826 L 486 827 L 486 828 L 487 829 L 487 830 L 487 831 L 488 832 L 488 833 L 489 834 L 489 835 L 489 836 L 490 837 L 490 838 L 490 839 L 490 840 L 491 841 L 491 842 L 492 843 L 493 844 L 494 845 L 495 845 L 496 846 L 497 846 L 498 847 L 499 847 L 500 848 L 501 849 L 502 850 L 502 851 L 502 852 L 502 853 L 502 854 L 502 855 L 502 856 L 502 857 L 503 858 L 503 859 L 504 860 L 504 861 L 505 862 L 506 863 L 507 864 L 508 865 L 509 866 L 509 867 L 509 868 L 509 869 L 510 870 L 510 871 L 510 872 L 511 873 L 511 874 L 512 875 L 513 876 L 513 877 L 514 878 L 515 879 L 516 880 L 516 881 L 517 882 L 517 883 L 518 884 L 518 885 L 518 886 L 518 887 L 518 888 L 517 889 L 517 890 L 517 891 L 517 892 L 517 893 L 517 894 L 517 895 L 517 896 L 517 897 L 518 898 L 518 899 L 518 900 L 518 901 L 518 902 L 519 903 L 519 904 L 519 905 L 519 906 L 519 907 L 519 908 L 520 909 L 520 910 L 521 911 L 521 912 L 521 913 L 522 914 L 523 915 L 524 916 L 525 916 L 526 917 L 527 918 L 528 918 L 529 919 L 530 920 L 531 920 L 532 921 L 533 921 L 534 922 L 535 922 L 536 922 L 537 922 L 538 923 L 539 923 L 540 923 L 541 923 L 542 923 L 543 923 L 544 923 L 545 923 L 546 923 L 547 923 L 548 923 L 549 922 L 550 922 L 551 922 L 552 922 L 553 921 L 554 921 L 555 921 L 556 921 L 557 921 L 558 920 L 559 920 L 560 920 L 561 920 L 562 920 L 563 919 L 564 919 L 565 918 L 566 918 L 567 918 L 568 918 L 569 918 L 570 918 L 571 918 L 572 918 L 573 918 L 574 918 L 575 917 L 576 917 L 577 917 L 578 917 L 579 917 L 580 917 L 581 917 L 582 917 L 583 918 L 584 918 L 585 918 L 586 918 L 587 918 L 588 918 L 589 918 L 590 918 L 591 917 L 592 917 L 593 917 L 594 917 L 595 916 L 596 916 L 597 916 L 598 916 L 599 916 L 600 916 L 601 915 L 602 915 L 603 915 L 604 915 L 605 914 L 606 914 L 607 914 L 608 914 L 609 913 L 610 913 L 611 912 L 612 912 L 613 911 L 614 911 L 615 910 L 616 910 L 617 909 L 618 909 L 619 908 L 620 908 L 621 907 L 622 907 L 623 906 L 624 905 L 625 905 L 626 904 L 627 903 L 628 903 L 629 902 L 630 901 L 631 901 L 632 900 L 633 899 L 634 898 L 635 897 L 636 896 L 637 895 L 638 895 L 639 894 L 640 893 L 641 892 L 642 891 L 643 890 L 644 889 L 645 888 L 646 887 L 647 886 L 648 885 L 649 884 L 650 883 L 651 882 L 651 881 L 652 880 L 653 879 L 654 878 L 655 877 L 656 876 L 657 875 L 658 874 L 659 873 L 660 872 L 660 871 L 661 870 L 662 869 L 663 868 L 664 867 L 665 866 L 666 865 L 667 864 L 668 863 L 669 862 L 670 861 L 671 860 L 671 859 L 672 858 L 673 857 L 674 856 L 674 855 L 675 854 L 675 853 L 676 852 L 677 851 L 677 850 L 678 849 L 678 848 L 679 847 L 679 846 L 680 845 L 680 844 L 681 843 L 681 842 L 682 841 L 682 840 L 683 839 L 683 838 L 683 837 L 683 836 L 683 835 L 683 834 L 683 833 L 683 832 L 683 831 L 683 830 L 684 829 L 684 828 L 684 827 L 684 826 L 684 825 L 684 824 L 684 823 L 684 822 L 685 821 L 686 821 L 687 820 L 688 819 L 689 818 L 690 818 L 691 817 L 692 816 L 693 815 L 694 814 L 695 814 L 696 814 L 697 814 L 698 814 L 699 814 L 700 814 L 701 814 L 702 813 L 703 813 L 704 813 L 705 813 L 706 812 L 707 812 L 708 811 L 709 811 L 710 810 L 711 809 L 712 809 L 712 808 L 713 807 L 714 806 L 715 805 L 716 804 L 717 803 L 717 802 L 718 801 L 718 800 L 718 799 L 718 798 L 719 797 L 719 796 L 719 795 L 719 794 L 719 793 L 719 792 L 719 791 L 719 790 L 719 789 L 720 788 L 720 787 L 720 786 L 720 785 L 720 784 L 720 783 L 720 782 L 720 781 L 720 780 L 720 779 L 720 778 L 720 777 L 720 776 L 720 775 L 720 774 L 720 773 L 719 772 L 719 771 L 719 770 L 718 769 L 718 768 L 717 767 L 717 766 L 717 765 L 716 764 L 716 763 L 715 762 L 715 761 L 714 760 L 714 759 L 714 758 L 713 757 L 713 756 L 713 755 L 714 754 L 715 754 L 716 753 L 717 752 L 718 752 L 719 751 L 720 750 L 721 749 L 722 749 L 723 748 L 724 747 L 725 746 L 726 745 L 727 744 L 727 743 L 727 742 L 727 741 L 728 740 L 729 740 L 730 739 L 731 739 L 732 738 L 733 738 L 734 737 L 735 736 L 736 735 L 736 734 L 737 733 L 738 732 L 739 731 L 740 730 L 741 730 L 742 729 L 743 728 L 744 728 L 745 727 L 746 727 L 747 726 L 748 725 L 749 725 L 750 724 L 751 724 L 752 723 L 753 723 L 754 723 L 755 722 L 756 722 L 757 721 L 758 721 L 759 721 L 760 720 L 761 720 L 762 719 L 763 719 L 764 718 L 765 717 L 766 716 L 767 716 L 768 715 L 769 714 L 770 713 L 771 712 L 772 712 L 773 711 L 774 710 L 775 709 L 776 708 L 777 707 L 777 706 L 778 705 L 779 704 L 780 703 L 780 702 L 781 701 L 781 700 L 781 699 L 782 698 L 782 697 L 783 696 L 783 695 L 783 694 L 783 693 L 783 692 L 783 691 L 783 690 L 783 689 L 783 688 L 783 687 L 783 686 L 783 685 L 783 684 L 783 683 L 783 682 L 784 681 L 784 680 L 784 679 L 784 678 L 785 677 L 785 676 L 785 675 L 785 674 L 785 673 L 785 672 L 785 671 L 784 670 L 784 669 L 784 668 L 784 667 L 784 666 L 784 665 L 784 664 L 784 663 L 784 662 L 784 661 L 784 660 L 784 659 L 784 658 L 784 657 L 784 656 L 784 655 L 785 654 L 785 653 L 785 652 L 785 651 L 785 650 L 785 649 L 785 648 L 785 647 L 784 646 L 784 645 L 783 644 L 783 643 L 783 642 L 783 641 L 783 640 L 783 639 L 783 638 L 783 637 L 783 636 L 783 635 L 782 634 L 781 633 L 780 632 L 779 632 L 778 631 L 777 630 L 776 629 L 776 628 L 775 627 L 774 626 L 774 625 L 774 624 L 774 623 L 774 622 L 774 621 L 774 620 L 773 619 L 773 618 L 773 617 L 773 616 L 773 615 L 773 614 L 773 613 L 773 612 L 773 611 L 773 610 L 773 609 L 773 608 L 773 607 L 773 606 L 772 605 L 772 604 L 772 603 L 771 602 L 771 601 L 771 600 L 771 599 L 771 598 L 771 597 L 771 596 L 771 595 L 770 594 L 770 593 L 769 593 L 768 592 L 768 591 L 768 590 L 767 589 L 767 588 L 768 587 L 768 586 L 768 585 L 768 584 L 769 583 L 769 582 L 769 581 L 770 580 L 771 579 L 772 578 L 773 577 L 773 576 L 773 575 L 773 574 L 773 573 L 774 572 L 774 571 L 775 570 L 775 569 L 776 568 L 777 567 L 778 566 L 779 565 L 779 564 L 780 563 L 780 562 L 781 561 L 782 560 L 782 559 L 783 558 L 784 557 L 785 556 L 786 555 L 786 554 L 787 553 L 788 552 L 789 551 L 790 550 L 791 549 L 791 548 L 792 547 L 793 546 L 794 545 L 795 544 L 796 543 L 797 542 L 798 541 L 799 540 L 800 539 L 800 538 L 801 537 L 802 536 L 803 535 L 804 534 L 805 533 L 805 532 L 806 531 L 807 530 L 808 529 L 808 528 L 809 527 L 810 526 L 811 525 L 812 524 L 813 523 L 814 522 L 815 521 L 816 520 L 816 519 L 817 518 L 818 517 L 819 517 L 820 516 L 821 515 L 822 514 L 823 513 L 824 512 L 825 511 L 826 510 L 827 509 L 828 508 L 829 507 L 830 507 L 831 506 L 832 505 L 833 505 L 834 504 L 835 503 L 836 502 L 837 502 L 838 501 L 839 500 L 840 500 L 841 499 L 842 498 L 843 497 L 844 497 L 845 496 L 846 495 L 847 494 L 848 493 L 849 493 L 850 492 L 851 491 L 852 490 L 853 489 L 854 488 L 855 487 L 856 486 L 857 485 L 858 484 L 859 483 L 860 482 L 861 481 L 862 480 L 862 479 L 863 478 L 864 477 L 865 476 L 865 475 L 866 474 L 867 473 L 868 472 L 868 471 L 869 470 L 870 469 L 870 468 L 871 467 L 872 466 L 872 465 L 873 464 L 873 463 L 874 462 L 874 461 L 875 460 L 876 459 L 876 458 L 877 457 L 877 456 L 878 455 L 878 454 L 879 453 L 879 452 L 880 451 L 880 450 L 881 449 L 881 448 L 882 447 L 882 446 L 883 445 L 883 444 L 884 443 L 884 442 L 885 441 L 885 440 L 885 439 L 886 438 L 886 437 L 887 436 L 887 435 L 887 434 L 888 433 L 888 432 L 888 431 L 889 430 L 889 429 L 890 428 L 890 427 L 891 426 L 891 425 L 892 424 L 892 423 L 893 422 L 893 421 L 893 420 L 894 419 L 894 418 L 895 417 L 895 416 L 895 415 L 896 414 L 896 413 L 897 412 L 897 411 L 898 410 L 898 409 L 898 408 L 899 407 L 899 406 L 899 405 L 900 404 L 900 403 L 900 402 L 901 401 L 901 400 L 901 399 L 902 398 L 902 397 L 902 396 L 902 395 L 903 394 L 903 393 L 903 392 L 903 391 L 903 390 L 902 389 L 902 388 L 902 387 L 902 386 L 902 385 L 902 384 L 902 383 L 902 382 L 902 381 L 902 380 L 902 379 L 902 378 L 902 377 L 902 376 L 902 375 L 901 374 L 900 373 L 899 373 L 898 372 L 897 372 L 896 371 L 895 371 L 894 371 L 893 371 L 892 371 L 891 371 L 890 372 L 889 372 L 888 372 L 887 373 L 886 373 L 885 373 L 884 374 L 883 374 L 882 375 L 881 375 L 880 376 L 879 376 L 878 376 L 877 377 L 876 377 L 875 378 L 874 378 L 873 378 L 872 379 L 871 378 L 870 378 L 869 378 L 868 377 L 867 377 L 866 378 L 865 378 L 864 379 L 863 379 L 862 380 L 861 381 L 860 382 L 859 382 L 858 382 L 857 382 L 856 382 L 855 382 L 854 383 L 853 383 L 852 383 L 851 383 L 850 383 L 849 384 L 848 384 L 847 384 L 846 384 L 845 384 L 844 385 L 843 385 L 842 386 L 841 386 L 840 387 L 839 387 L 838 388 L 837 388 L 836 388 L 835 387 L 834 388 L 833 388 L 832 388 L 831 388 L 830 389 L 829 389 L 828 390 L 827 390 L 826 390 L 825 390 L 824 389 L 823 388 L 822 388 L 821 387 L 820 386 L 819 386 L 818 385 L 817 384 L 816 383 L 816 382 L 816 381 L 816 380 L 816 379 L 816 378 L 816 377 L 816 376 L 816 375 L 815 374 L 815 373 L 815 372 L 815 371 L 815 370 L 815 369 L 814 368 L 814 367 L 814 366 L 813 365 L 812 364 L 811 364 L 810 363 L 809 363 L 808 362 L 807 362 L 806 362 L 805 361 L 805 360 L 804 359 L 804 358 L 803 357 L 802 356 L 801 355 L 800 354 L 800 353 L 799 352 L 799 351 L 798 350 L 797 349 L 796 348 L 795 347 L 794 346 L 793 346 L 792 345 L 791 344 L 790 344 L 789 343 L 788 343 L 787 342 L 786 342 L 785 341 L 784 341 L 783 341 L 782 340 L 781 340 L 780 339 L 779 338 L 778 338 L 777 337 L 776 336 L 775 336 L 774 335 L 773 335 L 772 334 L 771 334 L 770 334 L 769 333 L 768 333 L 767 332 L 766 331 L 766 330 L 765 329 L 764 328 L 764 327 L 763 326 L 763 325 L 763 324 L 763 323 L 763 322 L 763 321 L 763 320 L 763 319 L 763 318 L 762 317 L 762 316 L 762 315 L 761 314 L 760 313 L 760 312 L 760 311 L 759 310 L 758 309 L 758 308 L 757 307 L 756 306 L 756 305 L 755 304 L 754 303 L 753 302 L 752 302 L 751 301 L 750 301 L 749 300 L 748 299 L 747 298 L 746 297 L 746 296 L 746 295 L 746 294 L 746 293 L 746 292 L 745 291 L 745 290 L 744 289 L 743 288 L 742 287 L 741 286 L 740 285 L 740 284 L 739 283 L 739 282 L 739 281 L 739 280 L 738 279 L 738 278 L 738 277 L 737 276 L 737 275 L 737 274 L 737 273 L 736 272 L 736 271 L 735 270 L 735 269 L 734 268 L 734 267 L 734 266 L 734 265 L 734 264 L 734 263 L 734 262 L 734 261 L 734 260 L 734 259 L 733 258 L 733 257 L 733 256 L 733 255 L 732 254 L 732 253 L 731 252 L 730 251 L 730 250 L 729 249 L 729 248 L 728 247 L 728 246 L 728 245 L 727 244 L 726 243 L 725 242 L 725 241 L 724 240 L 723 239 L 722 238 L 721 237 L 720 236 L 719 235 L 718 234 L 717 234 L 716 233 L 715 232 L 715 231 L 715 230 L 714 229 L 714 228 L 714 227 L 714 226 L 714 225 L 714 224 L 713 223 L 713 222 L 712 221 L 711 220 L 710 219 L 709 219 L 708 218 L 707 217 L 706 216 L 705 215 L 705 214 L 704 213 L 704 212 L 704 211 L 703 210 L 703 209 L 702 208 L 702 207 L 701 206 L 701 205 L 700 204 L 700 203 L 700 202 L 699 201 L 699 200 L 698 199 L 697 198 L 697 197 L 696 196 L 695 195 L 694 194 L 694 193 L 693 192 L 693 191 L 694 190 L 695 189 L 696 189 L 697 188 L 698 187 L 698 186 L 699 185 L 699 184 L 699 183 L 699 182 L 700 181 L 700 180 L 700 179 L 700 178 L 701 177 L 701 176 L 701 175 L 702 174 L 702 173 L 702 172 L 702 171 L 702 170 L 702 169 L 702 168 L 702 167 L 702 166 L 702 165 L 702 164 L 702 163 L 702 162 L 701 161 L 701 160 L 701 159 L 701 158 L 700 157 L 700 156 L 700 155 L 699 154 L 698 153 L 697 152 L 696 151 L 696 150 L 695 149 L 695 148 L 694 147 L 694 146 L 693 146 L 692 145 L 691 145 L 690 144 L 689 144 L 688 143 L 687 143 L 686 142 L 685 142 L 684 142 L 683 141 L 682 141 L 681 141 L 680 141 L 679 142 L 678 142 L 677 143 L 676 143 L 675 143 L 674 143 L 673 144 L 672 143 L 671 143 L 670 144 L 669 144 L 668 144 L 667 143 L 666 143 L 665 142 L 664 142 L 663 142 L 662 141 L 661 141 L 660 141 L 659 140 L 658 140 L 657 140 L 656 140 L 655 140 L 654 140 L 653 139 L 652 139 L 651 139 L 650 139 L 649 139 L 648 139 L 647 140 L 646 140 L 645 140 L 644 140 L 643 141 L 642 141 L 641 142 L 640 142 L 639 142 L 638 143 L 637 143 L 636 144 L 635 144 L 634 145 L 633 145 L 632 146 L 631 146 L 630 146 L 629 146 L 628 146 L 627 146 L 626 145 L 625 145 L 624 145 L 623 145 L 622 145 L 621 145 L 620 145 L 619 144 L 618 144 L 617 144 L 616 144 L 615 143 L 614 143 L 613 142 L 612 142 L 611 141 L 610 141 L 609 140 L 608 140 L 607 140 L 606 140 L 605 140 L 604 139 L 603 139 L 602 139 L 601 139 L 600 138 L 599 138 L 598 138 L 597 138 L 596 137 L 595 137 L 594 137 L 593 137 L 592 137 L 591 137 L 590 137 L 589 137 L 588 137 L 587 137 L 586 137 L 585 136 L 584 136 L 583 135 L 582 134 L 581 134 L 580 133 L 579 133 L 578 132 L 577 132 L 576 131 L 575 131 L 574 130 L 573 130 L 572 130 L 571 130 L 570 129 L 569 129 L 568 128 L 567 128 L 566 128 L 565 127 L 564 127 L 563 127 L 562 126 L 561 126 L 560 126 L 559 125 L 558 125 L 557 125 L 556 125 L 555 125 L 554 125 L 553 125 L 552 126 L 551 126 L 550 126 L 549 127 L 548 127 L 547 127 L 546 128 L 545 128 L 544 128 L 543 129 L 542 129 L 541 130 L 540 130 L 539 131 L 538 131 L 537 132 L 536 133 L 535 134 L 534 134 L 533 135 L 532 135 L 531 136 L 530 137 L 529 138 L 529 139 L 528 140 L 528 141 L 527 142 L 527 143 L 527 144 L 527 145 L 527 146 L 527 147 L 527 148 L 527 149 L 527 150 L 527 151 L 526 152 L 525 151 L 524 151 L 523 150 L 522 150 L 521 149 L 520 149 L 519 148 L 518 148 L 517 147 L 516 147 L 515 146 L 514 146 L 513 146 L 512 145 L 511 145 L 510 144 L 509 144 L 508 144 L 507 144 L 506 144 L 505 144 L 504 144 L 503 143 L 502 143 L 501 142 L 500 142 L 499 141 L 498 141 L 497 140 L 496 139 L 496 138 L 495 137 L 494 136 L 493 135 L 493 134 L 492 134 L 491 133 L 490 132 L 489 131 L 488 130 L 487 130 L 486 129 L 485 129 L 484 128 L 483 128 L 482 127 L 481 127 L 480 126 L 479 126 L 478 126 L 477 125 L 476 125 L 475 124 L 474 124 L 473 124 L 472 123 L 471 123 L 470 123 L 469 123 L 468 123 L 467 123 L 466 123 L 465 123 L 464 123 L 463 123 L 462 122 L 461 122 L 460 121 L 459 121 L 458 121 L 457 121 L 456 121 L 455 121 L 454 121 L 453 121 L 452 120 L 451 120 L 450 119 L 449 119 L 448 118 L 447 118 L 446 117 L 445 117 L 444 116 L 443 117 L 442 116 L 442 115 L 443 114 L 444 113 L 444 112 L 445 111 L 445 110 L 446 109 L 446 108 L 447 107 L 447 106 L 447 105 L 447 104 L 447 103 L 447 102 L 448 101 L 449 100 L 450 99 L 451 98 L 451 97 L 451 96 L 451 95 L 451 94 L 451 93 L 450 92 L 450 91 L 450 90 L 449 89 L 450 88 L 450 87 L 450 86 L 450 85 L 450 84 L 449 83 L 449 82 L 448 81 L 447 80 L 446 80 L 445 79 L 444 79 L 443 78 L 442 78 L 441 77 L 440 77 L 439 77 L 438 77 L 437 77 L 436 77 L 435 77 L 434 77 L 433 77 L 432 78 L 431 77 L 430 77 L 429 76 L 428 76 L 427 75 L 426 75 L 425 75 L 424 75 Z" fill="none" stroke="black" stroke-width="2"/>
</svg>
