<svg width="983" height="412" viewBox="0 0 983 412" fill="none" xmlns="http://www.w3.org/2000/svg">
<g clip-path="url(#clip0_949_80)">
<path d="M130.348 266.168V145.337H260.174H390V174.674V204.012H344.15H298.3L251.082 252.444C225.112 279.082 201.166 303.705 197.868 307.162L191.872 313.447V350.223V387H161.11H130.348V266.168ZM0 144.836V24L130.087 24.2526L260.174 24.5053V53.3459V82.1863L214.042 82.6836L167.91 83.1809L122.912 129.425C98.1627 154.859 74.4606 179.169 70.2403 183.447L62.5668 191.226V228.449V265.672H31.2837H0V144.836Z" fill="#4BBAC9"/>
</g>
<path d="M471.376 68.56H519.888V74.448H471.376V68.56ZM472.144 114H465.616V24.4H525.52V30.288H472.144V114ZM537.918 114V19.024H544.318V114H537.918ZM592.029 114.512C586.312 114.512 581.362 113.488 577.181 111.44C573 109.307 569.757 106.149 567.453 101.968C565.234 97.7013 564.125 92.4533 564.125 86.224V47.184H570.525V85.712C570.525 93.2213 572.445 98.9387 576.285 102.864C580.125 106.789 585.544 108.752 592.541 108.752C597.576 108.752 601.928 107.685 605.597 105.552C609.266 103.419 612.082 100.432 614.045 96.592C616.008 92.6667 616.989 88.0587 616.989 82.768V47.184H623.389V114H617.245V95.44L618.141 97.616C616.178 102.821 612.893 106.96 608.285 110.032C603.762 113.019 598.344 114.512 592.029 114.512ZM633.494 114L661.27 77.904L661.142 80.976L634.902 47.184H642.198L665.11 76.752H662.422L685.206 47.184H692.374L665.878 81.36L666.006 77.904L694.166 114H686.614L662.422 82.512L664.854 82.768L640.79 114H633.494ZM503.888 250.64C497.147 250.64 490.917 249.531 485.2 247.312C479.483 245.008 474.491 241.808 470.224 237.712C466.043 233.616 462.8 228.837 460.496 223.376C458.192 217.829 457.04 211.771 457.04 205.2C457.04 198.629 458.192 192.613 460.496 187.152C462.8 181.605 466.085 176.784 470.352 172.688C474.619 168.592 479.568 165.435 485.2 163.216C490.917 160.912 497.189 159.76 504.016 159.76C510.501 159.76 516.517 160.784 522.064 162.832C527.611 164.88 532.347 167.952 536.272 172.048L532.176 176.4C528.251 172.56 523.941 169.829 519.248 168.208C514.64 166.587 509.605 165.776 504.144 165.776C498.341 165.776 492.965 166.757 488.016 168.72C483.067 170.683 478.757 173.456 475.088 177.04C471.419 180.624 468.56 184.805 466.512 189.584C464.549 194.363 463.568 199.568 463.568 205.2C463.568 210.832 464.549 216.037 466.512 220.816C468.56 225.595 471.419 229.776 475.088 233.36C478.757 236.944 483.067 239.717 488.016 241.68C492.965 243.643 498.341 244.624 504.144 244.624C509.435 244.624 514.427 243.813 519.12 242.192C523.899 240.571 528.251 237.883 532.176 234.128L535.888 239.12C531.877 242.96 527.056 245.861 521.424 247.824C515.877 249.701 510.032 250.64 503.888 250.64ZM529.616 238.48V205.584H535.888V239.12L529.616 238.48ZM556.168 250V155.024H562.568V250H556.168ZM609.255 250.512C602.855 250.512 597.138 249.061 592.103 246.16C587.154 243.259 583.186 239.248 580.199 234.128C577.298 229.008 575.847 223.163 575.847 216.592C575.847 209.936 577.298 204.091 580.199 199.056C583.186 193.936 587.154 189.925 592.103 187.024C597.138 184.123 602.855 182.672 609.255 182.672C615.655 182.672 621.372 184.123 626.407 187.024C631.442 189.925 635.41 193.936 638.311 199.056C641.212 204.091 642.663 209.936 642.663 216.592C642.663 223.163 641.212 229.008 638.311 234.128C635.41 239.248 631.442 243.259 626.407 246.16C621.372 249.061 615.655 250.512 609.255 250.512ZM609.255 244.752C614.375 244.752 618.983 243.6 623.079 241.296C627.175 238.907 630.375 235.579 632.679 231.312C634.983 227.045 636.135 222.139 636.135 216.592C636.135 210.96 634.983 206.053 632.679 201.872C630.375 197.605 627.175 194.32 623.079 192.016C618.983 189.627 614.375 188.432 609.255 188.432C604.135 188.432 599.527 189.627 595.431 192.016C591.42 194.32 588.22 197.605 585.831 201.872C583.527 206.053 582.375 210.96 582.375 216.592C582.375 222.139 583.527 227.045 585.831 231.312C588.22 235.579 591.42 238.907 595.431 241.296C599.527 243.6 604.135 244.752 609.255 244.752ZM689.654 250.512C683.766 250.512 678.433 249.147 673.654 246.416C668.961 243.685 665.206 239.76 662.39 234.64C659.659 229.52 658.294 223.504 658.294 216.592C658.294 209.509 659.659 203.451 662.39 198.416C665.206 193.381 668.961 189.499 673.654 186.768C678.433 184.037 683.766 182.672 689.654 182.672C695.969 182.672 701.601 184.123 706.55 187.024C711.585 189.84 715.51 193.808 718.326 198.928C721.227 203.963 722.678 209.851 722.678 216.592C722.678 223.248 721.227 229.136 718.326 234.256C715.51 239.376 711.585 243.387 706.55 246.288C701.601 249.104 695.969 250.512 689.654 250.512ZM656.118 250V155.024H662.518V204.816L661.238 216.464L662.262 228.112V250H656.118ZM689.27 244.752C694.39 244.752 698.998 243.6 703.094 241.296C707.19 238.907 710.39 235.579 712.694 231.312C715.083 227.045 716.278 222.139 716.278 216.592C716.278 210.96 715.083 206.053 712.694 201.872C710.39 197.605 707.19 194.32 703.094 192.016C698.998 189.627 694.39 188.432 689.27 188.432C684.15 188.432 679.542 189.627 675.446 192.016C671.435 194.32 668.235 197.605 665.846 201.872C663.542 206.053 662.39 210.96 662.39 216.592C662.39 222.139 663.542 227.045 665.846 231.312C668.235 235.579 671.435 238.907 675.446 241.296C679.542 243.6 684.15 244.752 689.27 244.752ZM777.955 250V234.768L777.699 232.464V207.376C777.699 201.147 775.992 196.411 772.579 193.168C769.251 189.925 764.344 188.304 757.859 188.304C753.251 188.304 748.942 189.115 744.931 190.736C741.006 192.272 737.635 194.277 734.819 196.752L731.619 192.144C734.947 189.157 738.958 186.853 743.651 185.232C748.344 183.525 753.251 182.672 758.371 182.672C766.648 182.672 773.006 184.763 777.443 188.944C781.88 193.125 784.099 199.355 784.099 207.632V250H777.955ZM753.891 250.512C748.942 250.512 744.632 249.744 740.963 248.208C737.379 246.587 734.606 244.325 732.643 241.424C730.766 238.523 729.827 235.195 729.827 231.44C729.827 228.027 730.595 224.955 732.131 222.224C733.752 219.408 736.398 217.147 740.067 215.44C743.736 213.648 748.643 212.752 754.787 212.752H779.363V217.744H754.915C748.003 217.744 743.139 219.024 740.323 221.584C737.592 224.144 736.227 227.344 736.227 231.184C736.227 235.451 737.848 238.864 741.091 241.424C744.334 243.984 748.899 245.264 754.787 245.264C760.419 245.264 765.155 243.984 768.995 241.424C772.92 238.864 775.822 235.152 777.699 230.288L779.491 234.64C777.699 239.504 774.627 243.387 770.275 246.288C766.008 249.104 760.547 250.512 753.891 250.512ZM804.068 250V155.024H810.468V250H804.068ZM465.616 386V296.4H472.144V380.112H523.728V386H465.616ZM557.03 386.512C550.63 386.512 544.913 385.061 539.878 382.16C534.929 379.259 530.961 375.248 527.974 370.128C525.073 365.008 523.622 359.163 523.622 352.592C523.622 345.936 525.073 340.091 527.974 335.056C530.961 329.936 534.929 325.925 539.878 323.024C544.913 320.123 550.63 318.672 557.03 318.672C563.43 318.672 569.147 320.123 574.182 323.024C579.217 325.925 583.185 329.936 586.086 335.056C588.987 340.091 590.438 345.936 590.438 352.592C590.438 359.163 588.987 365.008 586.086 370.128C583.185 375.248 579.217 379.259 574.182 382.16C569.147 385.061 563.43 386.512 557.03 386.512ZM557.03 380.752C562.15 380.752 566.758 379.6 570.854 377.296C574.95 374.907 578.15 371.579 580.454 367.312C582.758 363.045 583.91 358.139 583.91 352.592C583.91 346.96 582.758 342.053 580.454 337.872C578.15 333.605 574.95 330.32 570.854 328.016C566.758 325.627 562.15 324.432 557.03 324.432C551.91 324.432 547.302 325.627 543.206 328.016C539.195 330.32 535.995 333.605 533.606 337.872C531.302 342.053 530.15 346.96 530.15 352.592C530.15 358.139 531.302 363.045 533.606 367.312C535.995 371.579 539.195 374.907 543.206 377.296C547.302 379.6 551.91 380.752 557.03 380.752ZM631.669 411.344C625.61 411.344 619.85 410.405 614.389 408.528C608.928 406.651 604.49 404.048 601.077 400.72L604.533 395.856C607.861 398.928 611.829 401.317 616.437 403.024C621.13 404.731 626.165 405.584 631.541 405.584C640.501 405.584 647.072 403.493 651.253 399.312C655.52 395.131 657.653 388.56 657.653 379.6V361.04L658.933 351.056L657.909 341.072V319.184H664.053V378.832C664.053 390.011 661.322 398.203 655.861 403.408C650.485 408.699 642.421 411.344 631.669 411.344ZM629.877 383.568C623.562 383.568 617.888 382.203 612.853 379.472C607.904 376.656 603.936 372.816 600.949 367.952C598.048 363.003 596.597 357.371 596.597 351.056C596.597 344.656 598.048 339.024 600.949 334.16C603.936 329.296 607.904 325.499 612.853 322.768C617.888 320.037 623.562 318.672 629.877 318.672C635.936 318.672 641.354 319.995 646.133 322.64C650.997 325.2 654.837 328.912 657.653 333.776C660.469 338.555 661.877 344.315 661.877 351.056C661.877 357.712 660.469 363.472 657.653 368.336C654.837 373.2 650.997 376.955 646.133 379.6C641.354 382.245 635.936 383.568 629.877 383.568ZM630.389 377.808C635.765 377.808 640.501 376.699 644.597 374.48C648.693 372.176 651.893 369.019 654.197 365.008C656.586 360.912 657.781 356.261 657.781 351.056C657.781 345.765 656.586 341.115 654.197 337.104C651.893 333.093 648.693 329.979 644.597 327.76C640.501 325.541 635.765 324.432 630.389 324.432C625.184 324.432 620.49 325.541 616.309 327.76C612.213 329.979 608.97 333.093 606.581 337.104C604.277 341.115 603.125 345.765 603.125 351.056C603.125 356.261 604.277 360.912 606.581 365.008C608.97 369.019 612.213 372.176 616.309 374.48C620.49 376.699 625.184 377.808 630.389 377.808ZM684.743 386V319.184H691.143V386H684.743ZM687.943 302.928C686.492 302.928 685.255 302.416 684.231 301.392C683.207 300.368 682.695 299.173 682.695 297.808C682.695 296.357 683.207 295.12 684.231 294.096C685.255 293.072 686.492 292.56 687.943 292.56C689.479 292.56 690.716 293.072 691.655 294.096C692.679 295.035 693.191 296.229 693.191 297.68C693.191 299.131 692.679 300.368 691.655 301.392C690.716 302.416 689.479 302.928 687.943 302.928ZM728.614 386.512C723.067 386.512 717.862 385.701 712.998 384.08C708.219 382.459 704.507 380.411 701.862 377.936L704.806 372.816C707.366 375.035 710.779 376.955 715.046 378.576C719.313 380.112 723.921 380.88 728.87 380.88C735.867 380.88 740.902 379.728 743.974 377.424C747.046 375.12 748.582 372.091 748.582 368.336C748.582 365.605 747.771 363.472 746.15 361.936C744.614 360.315 742.523 359.077 739.878 358.224C737.233 357.371 734.331 356.688 731.174 356.176C728.017 355.579 724.859 354.939 721.702 354.256C718.545 353.573 715.643 352.592 712.998 351.312C710.353 350.032 708.219 348.283 706.598 346.064C705.062 343.76 704.294 340.731 704.294 336.976C704.294 333.563 705.233 330.491 707.11 327.76C708.987 325.029 711.803 322.853 715.558 321.232C719.313 319.525 724.006 318.672 729.638 318.672C733.819 318.672 738.001 319.269 742.182 320.464C746.449 321.659 749.905 323.237 752.55 325.2L749.606 330.32C746.79 328.187 743.633 326.651 740.134 325.712C736.635 324.773 733.094 324.304 729.51 324.304C723.025 324.304 718.246 325.499 715.174 327.888C712.187 330.277 710.694 333.264 710.694 336.848C710.694 339.664 711.462 341.925 712.998 343.632C714.619 345.253 716.753 346.533 719.398 347.472C722.043 348.325 724.945 349.051 728.102 349.648C731.259 350.16 734.417 350.757 737.574 351.44C740.731 352.123 743.633 353.104 746.278 354.384C748.923 355.579 751.014 357.285 752.55 359.504C754.171 361.637 754.982 364.539 754.982 368.208C754.982 371.877 753.958 375.077 751.91 377.808C749.947 380.539 747.003 382.672 743.078 384.208C739.153 385.744 734.331 386.512 728.614 386.512ZM785.899 386.512C780.011 386.512 775.488 384.891 772.331 381.648C769.259 378.405 767.723 373.968 767.723 368.336V304.592H774.123V367.696C774.123 371.963 775.19 375.248 777.323 377.552C779.456 379.856 782.528 381.008 786.539 381.008C790.72 381.008 794.176 379.771 796.907 377.296L799.595 381.776C797.888 383.397 795.798 384.592 793.323 385.36C790.934 386.128 788.459 386.512 785.899 386.512ZM755.435 324.688V319.184H795.371V324.688H755.435ZM811.043 386V319.184H817.443V386H811.043ZM814.243 302.928C812.792 302.928 811.555 302.416 810.531 301.392C809.507 300.368 808.995 299.173 808.995 297.808C808.995 296.357 809.507 295.12 810.531 294.096C811.555 293.072 812.792 292.56 814.243 292.56C815.779 292.56 817.016 293.072 817.955 294.096C818.979 295.035 819.491 296.229 819.491 297.68C819.491 299.131 818.979 300.368 817.955 301.392C817.016 302.416 815.779 302.928 814.243 302.928ZM864.514 386.512C858.029 386.512 852.226 385.061 847.106 382.16C842.071 379.259 838.061 375.248 835.074 370.128C832.173 365.008 830.722 359.163 830.722 352.592C830.722 345.936 832.173 340.048 835.074 334.928C838.061 329.808 842.071 325.84 847.106 323.024C852.226 320.123 858.029 318.672 864.514 318.672C869.89 318.672 874.754 319.696 879.106 321.744C883.543 323.792 887.127 326.864 889.858 330.96L885.122 334.416C882.733 331.003 879.746 328.485 876.162 326.864C872.578 325.243 868.695 324.432 864.514 324.432C859.309 324.432 854.615 325.627 850.434 328.016C846.338 330.32 843.095 333.605 840.706 337.872C838.402 342.053 837.25 346.96 837.25 352.592C837.25 358.224 838.402 363.173 840.706 367.44C843.095 371.621 846.338 374.907 850.434 377.296C854.615 379.6 859.309 380.752 864.514 380.752C868.695 380.752 872.578 379.941 876.162 378.32C879.746 376.699 882.733 374.181 885.122 370.768L889.858 374.224C887.127 378.32 883.543 381.392 879.106 383.44C874.754 385.488 869.89 386.512 864.514 386.512ZM919.514 386.512C913.967 386.512 908.762 385.701 903.898 384.08C899.119 382.459 895.407 380.411 892.762 377.936L895.706 372.816C898.266 375.035 901.679 376.955 905.946 378.576C910.213 380.112 914.821 380.88 919.77 380.88C926.767 380.88 931.802 379.728 934.874 377.424C937.946 375.12 939.482 372.091 939.482 368.336C939.482 365.605 938.671 363.472 937.05 361.936C935.514 360.315 933.423 359.077 930.778 358.224C928.133 357.371 925.231 356.688 922.074 356.176C918.917 355.579 915.759 354.939 912.602 354.256C909.445 353.573 906.543 352.592 903.898 351.312C901.253 350.032 899.119 348.283 897.498 346.064C895.962 343.76 895.194 340.731 895.194 336.976C895.194 333.563 896.133 330.491 898.01 327.76C899.887 325.029 902.703 322.853 906.458 321.232C910.213 319.525 914.906 318.672 920.538 318.672C924.719 318.672 928.901 319.269 933.082 320.464C937.349 321.659 940.805 323.237 943.45 325.2L940.506 330.32C937.69 328.187 934.533 326.651 931.034 325.712C927.535 324.773 923.994 324.304 920.41 324.304C913.925 324.304 909.146 325.499 906.074 327.888C903.087 330.277 901.594 333.264 901.594 336.848C901.594 339.664 902.362 341.925 903.898 343.632C905.519 345.253 907.653 346.533 910.298 347.472C912.943 348.325 915.845 349.051 919.002 349.648C922.159 350.16 925.317 350.757 928.474 351.44C931.631 352.123 934.533 353.104 937.178 354.384C939.823 355.579 941.914 357.285 943.45 359.504C945.071 361.637 945.882 364.539 945.882 368.208C945.882 371.877 944.858 375.077 942.81 377.808C940.847 380.539 937.903 382.672 933.978 384.208C930.053 385.744 925.231 386.512 919.514 386.512Z" fill="#0B0B0B"/>
<defs>
<clipPath id="clip0_949_80">
<rect width="390" height="363" fill="white" transform="translate(0 24)"/>
</clipPath>
</defs>
</svg>
