<svg xmlns="http://www.w3.org/2000/svg" width="1024" height="1024" viewBox="0 0 1024 1024">
  <path d="M 587 52 L 586 53 L 585 53 L 584 54 L 583 54 L 582 54 L 581 55 L 580 55 L 579 56 L 578 56 L 577 57 L 576 57 L 575 58 L 574 58 L 573 59 L 572 59 L 571 60 L 570 61 L 569 62 L 568 62 L 567 63 L 566 64 L 566 65 L 565 66 L 564 66 L 563 66 L 562 66 L 561 67 L 560 67 L 559 68 L 558 68 L 557 69 L 556 70 L 555 70 L 554 71 L 553 71 L 552 72 L 551 72 L 550 73 L 549 74 L 548 74 L 547 75 L 546 76 L 545 76 L 544 77 L 543 77 L 542 78 L 542 79 L 542 80 L 541 81 L 540 82 L 539 82 L 538 83 L 537 84 L 536 85 L 536 86 L 536 87 L 535 88 L 534 89 L 534 90 L 533 91 L 532 91 L 531 90 L 530 90 L 529 89 L 528 89 L 527 89 L 526 89 L 525 90 L 524 90 L 523 91 L 522 91 L 522 92 L 521 93 L 521 94 L 521 95 L 521 96 L 521 97 L 521 98 L 521 99 L 520 100 L 519 99 L 518 99 L 517 98 L 516 98 L 515 97 L 514 97 L 513 97 L 512 97 L 511 98 L 510 98 L 509 99 L 508 99 L 507 100 L 506 100 L 506 101 L 506 102 L 506 103 L 506 104 L 506 105 L 506 106 L 507 107 L 507 108 L 506 109 L 506 110 L 506 111 L 506 112 L 506 113 L 507 114 L 507 115 L 507 116 L 506 117 L 505 117 L 504 118 L 503 118 L 502 119 L 502 120 L 502 121 L 502 122 L 502 123 L 502 124 L 502 125 L 502 126 L 503 127 L 503 128 L 503 129 L 503 130 L 503 131 L 504 132 L 505 133 L 506 134 L 506 135 L 505 136 L 504 136 L 503 136 L 502 136 L 501 136 L 500 135 L 500 134 L 500 133 L 500 132 L 500 131 L 500 130 L 500 129 L 500 128 L 499 127 L 498 126 L 497 126 L 496 125 L 496 124 L 497 123 L 498 122 L 498 121 L 499 120 L 499 119 L 499 118 L 500 117 L 500 116 L 501 115 L 502 114 L 502 113 L 502 112 L 502 111 L 502 110 L 502 109 L 502 108 L 502 107 L 502 106 L 501 105 L 500 104 L 499 104 L 498 103 L 497 103 L 496 102 L 495 102 L 494 101 L 493 101 L 492 102 L 491 102 L 490 102 L 489 102 L 488 103 L 487 103 L 486 104 L 485 104 L 484 105 L 483 105 L 482 105 L 481 106 L 480 106 L 479 107 L 478 107 L 477 108 L 476 109 L 475 109 L 474 110 L 473 110 L 472 111 L 471 111 L 470 111 L 469 112 L 468 112 L 467 111 L 466 111 L 465 111 L 464 111 L 463 111 L 462 111 L 461 112 L 460 112 L 459 112 L 458 113 L 457 113 L 456 114 L 455 114 L 454 115 L 453 115 L 452 116 L 451 116 L 450 117 L 449 117 L 448 117 L 447 117 L 446 117 L 445 118 L 444 118 L 443 119 L 442 119 L 441 120 L 440 120 L 440 121 L 440 122 L 440 123 L 440 124 L 440 125 L 440 126 L 440 127 L 441 128 L 442 129 L 442 130 L 443 131 L 444 132 L 445 132 L 446 133 L 446 134 L 447 135 L 448 135 L 449 136 L 450 136 L 451 137 L 451 138 L 452 139 L 453 140 L 453 141 L 453 142 L 452 143 L 451 143 L 450 143 L 449 142 L 448 142 L 447 141 L 446 140 L 445 140 L 444 139 L 443 139 L 442 138 L 441 138 L 440 137 L 439 137 L 438 136 L 437 136 L 436 136 L 435 136 L 434 136 L 433 136 L 432 137 L 431 137 L 430 137 L 429 137 L 428 137 L 427 138 L 426 138 L 425 139 L 424 139 L 423 140 L 423 141 L 423 142 L 423 143 L 423 144 L 423 145 L 423 146 L 423 147 L 423 148 L 422 149 L 421 150 L 420 151 L 420 152 L 419 153 L 418 153 L 417 154 L 416 155 L 415 156 L 415 157 L 414 158 L 413 159 L 412 159 L 411 160 L 410 161 L 410 162 L 410 163 L 410 164 L 410 165 L 411 166 L 411 167 L 412 168 L 413 169 L 414 170 L 415 171 L 415 172 L 415 173 L 415 174 L 416 175 L 416 176 L 416 177 L 417 178 L 417 179 L 418 180 L 419 181 L 420 181 L 421 182 L 422 182 L 423 183 L 424 183 L 425 182 L 426 182 L 427 182 L 428 181 L 429 182 L 430 182 L 431 182 L 432 182 L 433 182 L 434 181 L 435 182 L 435 183 L 436 184 L 436 185 L 436 186 L 437 187 L 437 188 L 437 189 L 437 190 L 437 191 L 437 192 L 437 193 L 437 194 L 438 195 L 438 196 L 439 197 L 439 198 L 439 199 L 439 200 L 439 201 L 439 202 L 439 203 L 438 204 L 437 204 L 436 203 L 435 203 L 434 202 L 433 202 L 432 201 L 432 200 L 431 199 L 430 198 L 429 197 L 428 196 L 427 195 L 426 194 L 425 193 L 425 192 L 424 191 L 423 190 L 422 189 L 421 189 L 420 188 L 419 188 L 418 187 L 417 187 L 416 187 L 415 188 L 414 187 L 414 186 L 414 185 L 414 184 L 414 183 L 413 182 L 412 182 L 411 181 L 410 181 L 409 180 L 408 181 L 407 181 L 406 182 L 405 182 L 404 181 L 404 180 L 404 179 L 404 178 L 404 177 L 404 176 L 403 175 L 403 174 L 403 173 L 402 172 L 402 171 L 401 170 L 400 170 L 399 169 L 398 169 L 397 168 L 396 168 L 395 169 L 394 169 L 393 170 L 392 170 L 391 171 L 390 170 L 389 170 L 388 169 L 387 169 L 386 168 L 385 169 L 384 169 L 383 170 L 382 170 L 381 170 L 380 170 L 379 170 L 378 169 L 377 169 L 376 168 L 375 169 L 374 169 L 373 170 L 372 169 L 371 169 L 370 168 L 369 167 L 368 167 L 367 166 L 366 166 L 365 165 L 364 165 L 363 166 L 362 166 L 361 167 L 360 167 L 359 168 L 358 168 L 357 168 L 356 167 L 355 166 L 354 165 L 354 164 L 353 163 L 353 162 L 353 161 L 352 160 L 351 159 L 351 158 L 351 157 L 351 156 L 351 155 L 351 154 L 350 153 L 349 152 L 348 152 L 347 151 L 346 150 L 345 150 L 344 149 L 343 148 L 343 147 L 342 146 L 341 145 L 341 144 L 341 143 L 341 142 L 340 141 L 340 140 L 339 139 L 338 139 L 337 138 L 336 138 L 335 137 L 334 137 L 333 137 L 332 137 L 331 137 L 330 136 L 329 135 L 329 134 L 329 133 L 329 132 L 329 131 L 328 130 L 328 129 L 327 128 L 326 127 L 325 127 L 324 126 L 323 126 L 322 125 L 322 124 L 321 123 L 321 122 L 320 121 L 319 120 L 318 120 L 317 119 L 316 119 L 315 118 L 315 117 L 315 116 L 315 115 L 315 114 L 315 113 L 314 112 L 314 111 L 313 110 L 313 109 L 312 108 L 311 108 L 310 107 L 310 106 L 309 105 L 308 104 L 308 103 L 307 102 L 306 101 L 306 100 L 306 99 L 306 98 L 305 97 L 305 96 L 304 95 L 303 94 L 302 94 L 301 93 L 300 93 L 299 92 L 298 92 L 297 92 L 296 92 L 295 92 L 294 91 L 293 91 L 292 90 L 291 90 L 290 89 L 289 89 L 288 89 L 287 89 L 286 89 L 285 89 L 284 89 L 283 89 L 282 89 L 281 89 L 280 89 L 279 89 L 278 89 L 277 89 L 276 88 L 275 88 L 274 88 L 273 88 L 272 88 L 271 88 L 270 88 L 269 89 L 268 89 L 267 90 L 266 90 L 265 91 L 264 91 L 263 91 L 262 90 L 261 90 L 260 89 L 259 89 L 258 88 L 257 89 L 256 89 L 255 90 L 254 90 L 253 91 L 252 91 L 251 92 L 250 92 L 249 92 L 248 92 L 247 92 L 246 91 L 245 91 L 244 90 L 243 90 L 242 89 L 241 89 L 240 88 L 239 88 L 238 88 L 237 88 L 236 88 L 235 89 L 234 89 L 233 90 L 232 90 L 231 91 L 230 92 L 229 93 L 229 94 L 229 95 L 228 96 L 228 97 L 228 98 L 228 99 L 228 100 L 228 101 L 228 102 L 228 103 L 228 104 L 228 105 L 228 106 L 228 107 L 227 108 L 226 109 L 226 110 L 225 111 L 224 112 L 223 112 L 222 112 L 221 111 L 220 111 L 219 110 L 218 110 L 217 110 L 216 110 L 215 109 L 214 109 L 213 109 L 212 108 L 211 108 L 210 107 L 209 107 L 208 107 L 207 107 L 206 107 L 205 107 L 204 107 L 203 107 L 202 107 L 201 107 L 200 107 L 199 107 L 198 107 L 197 107 L 196 108 L 195 108 L 194 109 L 193 109 L 192 110 L 192 111 L 192 112 L 192 113 L 192 114 L 192 115 L 192 116 L 192 117 L 192 118 L 191 119 L 190 119 L 189 120 L 188 121 L 188 122 L 187 123 L 187 124 L 187 125 L 187 126 L 187 127 L 186 128 L 185 129 L 184 130 L 184 131 L 184 132 L 184 133 L 184 134 L 184 135 L 184 136 L 185 137 L 186 137 L 187 138 L 188 138 L 189 139 L 190 139 L 191 139 L 192 139 L 193 140 L 194 140 L 195 141 L 196 142 L 197 142 L 198 143 L 199 143 L 200 144 L 201 144 L 202 144 L 203 145 L 204 145 L 205 145 L 206 146 L 206 147 L 206 148 L 205 149 L 204 149 L 203 149 L 202 149 L 201 150 L 200 150 L 199 149 L 199 148 L 198 147 L 197 147 L 196 146 L 195 146 L 194 145 L 193 145 L 192 146 L 191 146 L 190 147 L 189 147 L 188 148 L 187 147 L 186 147 L 185 146 L 184 146 L 183 145 L 182 145 L 181 145 L 180 146 L 179 146 L 178 146 L 177 146 L 176 147 L 175 147 L 174 148 L 173 148 L 172 148 L 171 149 L 170 149 L 169 150 L 168 150 L 167 151 L 166 152 L 165 152 L 164 152 L 163 152 L 162 153 L 161 153 L 160 154 L 159 154 L 158 155 L 157 155 L 156 156 L 155 157 L 155 158 L 154 159 L 153 160 L 152 161 L 151 161 L 150 162 L 149 162 L 148 163 L 148 164 L 148 165 L 148 166 L 148 167 L 147 168 L 146 168 L 145 167 L 144 167 L 143 167 L 142 166 L 141 166 L 140 166 L 139 167 L 138 167 L 137 168 L 136 168 L 135 169 L 134 169 L 133 170 L 133 171 L 132 172 L 132 173 L 132 174 L 132 175 L 132 176 L 132 177 L 132 178 L 133 179 L 133 180 L 134 181 L 135 181 L 136 182 L 137 182 L 138 183 L 139 183 L 140 183 L 141 183 L 142 182 L 143 182 L 144 181 L 145 182 L 146 183 L 146 184 L 146 185 L 146 186 L 146 187 L 147 187 L 148 188 L 149 188 L 150 189 L 151 189 L 152 190 L 153 190 L 154 191 L 154 192 L 154 193 L 154 194 L 153 195 L 152 196 L 151 196 L 150 197 L 149 197 L 148 198 L 147 198 L 147 199 L 146 200 L 146 201 L 146 202 L 146 203 L 146 204 L 145 205 L 145 206 L 145 207 L 145 208 L 145 209 L 146 210 L 146 211 L 147 211 L 148 212 L 149 212 L 150 213 L 151 213 L 152 213 L 153 213 L 154 214 L 154 215 L 154 216 L 155 217 L 156 217 L 157 218 L 158 218 L 159 219 L 160 220 L 160 221 L 160 222 L 160 223 L 160 224 L 160 225 L 159 226 L 158 227 L 157 228 L 156 228 L 155 229 L 154 229 L 153 229 L 152 230 L 151 230 L 150 230 L 149 231 L 148 231 L 147 230 L 146 230 L 145 229 L 144 229 L 143 228 L 142 228 L 141 229 L 140 229 L 139 230 L 138 230 L 137 229 L 136 229 L 135 228 L 134 228 L 133 227 L 132 227 L 131 227 L 130 227 L 129 228 L 128 228 L 127 229 L 126 228 L 125 228 L 124 228 L 123 228 L 122 228 L 121 228 L 120 228 L 119 229 L 118 229 L 117 228 L 116 228 L 115 227 L 114 227 L 113 227 L 112 227 L 111 228 L 110 227 L 109 227 L 108 226 L 107 226 L 106 226 L 105 227 L 104 227 L 103 227 L 102 227 L 101 226 L 100 226 L 99 225 L 98 224 L 97 223 L 96 223 L 95 222 L 94 222 L 93 221 L 92 220 L 91 219 L 90 219 L 89 218 L 88 218 L 87 217 L 86 217 L 85 218 L 84 218 L 83 219 L 82 219 L 81 220 L 81 221 L 80 222 L 79 221 L 78 221 L 77 220 L 76 220 L 75 220 L 74 221 L 73 221 L 72 221 L 71 221 L 70 220 L 69 220 L 68 219 L 67 219 L 66 219 L 65 219 L 64 220 L 63 220 L 62 221 L 61 221 L 60 222 L 60 223 L 60 224 L 60 225 L 60 226 L 60 227 L 60 228 L 60 229 L 61 229 L 62 230 L 63 230 L 64 231 L 65 231 L 66 232 L 67 232 L 68 232 L 69 233 L 70 233 L 71 234 L 72 234 L 73 234 L 74 234 L 75 234 L 76 234 L 77 235 L 78 235 L 79 235 L 80 235 L 81 236 L 82 237 L 83 238 L 84 238 L 85 239 L 86 239 L 87 240 L 88 240 L 89 240 L 90 241 L 91 240 L 92 240 L 93 239 L 94 239 L 95 239 L 96 240 L 97 241 L 98 241 L 99 242 L 100 242 L 101 243 L 102 243 L 103 243 L 104 243 L 105 243 L 106 243 L 107 242 L 108 242 L 109 241 L 110 242 L 111 242 L 112 243 L 113 244 L 114 244 L 115 245 L 116 245 L 117 246 L 118 246 L 119 246 L 120 246 L 121 246 L 122 246 L 123 246 L 124 245 L 125 245 L 126 244 L 127 244 L 128 245 L 129 245 L 130 246 L 131 246 L 132 247 L 133 247 L 134 247 L 135 247 L 136 247 L 137 247 L 138 247 L 139 247 L 140 247 L 141 248 L 142 248 L 143 249 L 144 249 L 145 249 L 146 249 L 147 248 L 148 248 L 149 247 L 150 247 L 151 247 L 152 246 L 153 246 L 154 246 L 155 246 L 156 246 L 157 246 L 158 247 L 159 247 L 160 247 L 161 247 L 162 246 L 163 246 L 164 247 L 163 248 L 163 249 L 163 250 L 163 251 L 163 252 L 163 253 L 163 254 L 163 255 L 163 256 L 164 257 L 165 258 L 166 259 L 167 259 L 168 260 L 169 260 L 170 261 L 171 261 L 172 260 L 173 260 L 174 259 L 175 259 L 176 259 L 177 260 L 178 260 L 179 260 L 180 260 L 181 259 L 182 259 L 183 260 L 184 260 L 185 260 L 186 259 L 187 259 L 188 259 L 189 259 L 190 258 L 191 258 L 192 257 L 193 257 L 194 256 L 195 256 L 196 255 L 197 254 L 197 253 L 197 252 L 198 251 L 199 250 L 199 249 L 199 248 L 199 247 L 199 246 L 200 245 L 201 246 L 202 246 L 203 247 L 204 247 L 205 248 L 206 247 L 207 247 L 208 247 L 209 247 L 210 246 L 211 246 L 212 246 L 213 246 L 214 246 L 215 246 L 216 245 L 217 245 L 218 245 L 219 245 L 220 245 L 221 245 L 222 245 L 223 245 L 224 245 L 225 245 L 226 245 L 227 245 L 228 245 L 229 245 L 230 245 L 231 245 L 232 245 L 233 246 L 234 246 L 235 246 L 236 246 L 237 246 L 238 245 L 239 245 L 240 244 L 241 245 L 241 246 L 241 247 L 241 248 L 241 249 L 241 250 L 242 251 L 243 251 L 244 252 L 245 252 L 246 253 L 246 254 L 246 255 L 247 256 L 247 257 L 248 258 L 249 258 L 250 259 L 251 259 L 252 260 L 253 260 L 254 260 L 255 261 L 255 262 L 256 263 L 257 264 L 257 265 L 258 265 L 259 266 L 260 267 L 261 268 L 262 269 L 263 270 L 264 271 L 264 272 L 265 273 L 265 274 L 265 275 L 266 276 L 267 277 L 267 278 L 268 279 L 268 280 L 268 281 L 269 282 L 269 283 L 270 284 L 270 285 L 271 286 L 271 287 L 271 288 L 272 289 L 272 290 L 272 291 L 272 292 L 272 293 L 272 294 L 272 295 L 272 296 L 272 297 L 273 298 L 273 299 L 273 300 L 273 301 L 273 302 L 273 303 L 273 304 L 273 305 L 274 306 L 274 307 L 274 308 L 274 309 L 274 310 L 274 311 L 274 312 L 274 313 L 274 314 L 274 315 L 275 316 L 275 317 L 275 318 L 275 319 L 275 320 L 275 321 L 275 322 L 276 323 L 276 324 L 276 325 L 276 326 L 276 327 L 276 328 L 276 329 L 276 330 L 276 331 L 276 332 L 276 333 L 276 334 L 275 335 L 274 336 L 273 337 L 273 338 L 272 339 L 272 340 L 272 341 L 272 342 L 272 343 L 272 344 L 272 345 L 273 346 L 274 347 L 275 348 L 274 349 L 273 349 L 272 350 L 271 350 L 271 351 L 271 352 L 271 353 L 270 354 L 269 354 L 268 355 L 267 356 L 267 357 L 267 358 L 267 359 L 267 360 L 267 361 L 267 362 L 267 363 L 267 364 L 267 365 L 267 366 L 267 367 L 267 368 L 267 369 L 267 370 L 266 371 L 266 372 L 266 373 L 266 374 L 266 375 L 266 376 L 266 377 L 267 378 L 267 379 L 267 380 L 268 381 L 268 382 L 268 383 L 269 384 L 269 385 L 269 386 L 269 387 L 270 388 L 271 388 L 272 389 L 273 389 L 274 390 L 275 390 L 276 390 L 277 389 L 278 389 L 279 388 L 280 388 L 280 387 L 281 386 L 281 385 L 281 384 L 281 383 L 281 382 L 281 381 L 281 380 L 280 379 L 280 378 L 279 377 L 279 376 L 279 375 L 279 374 L 280 373 L 281 372 L 282 372 L 283 371 L 284 370 L 285 371 L 285 372 L 285 373 L 286 374 L 286 375 L 287 376 L 287 377 L 288 378 L 288 379 L 289 380 L 289 381 L 288 382 L 288 383 L 288 384 L 288 385 L 288 386 L 288 387 L 288 388 L 289 389 L 290 390 L 290 391 L 290 392 L 291 393 L 291 394 L 291 395 L 291 396 L 291 397 L 292 398 L 292 399 L 292 400 L 292 401 L 292 402 L 292 403 L 292 404 L 292 405 L 291 406 L 290 407 L 289 407 L 288 408 L 287 408 L 286 409 L 286 410 L 286 411 L 286 412 L 286 413 L 286 414 L 286 415 L 286 416 L 286 417 L 286 418 L 286 419 L 286 420 L 286 421 L 286 422 L 286 423 L 287 424 L 288 425 L 288 426 L 289 427 L 290 428 L 290 429 L 291 430 L 292 431 L 292 432 L 292 433 L 293 434 L 293 435 L 294 436 L 294 437 L 295 438 L 296 439 L 297 440 L 298 441 L 299 442 L 300 443 L 300 444 L 301 445 L 301 446 L 301 447 L 302 448 L 302 449 L 302 450 L 302 451 L 302 452 L 302 453 L 302 454 L 301 455 L 301 456 L 301 457 L 301 458 L 301 459 L 301 460 L 301 461 L 301 462 L 300 463 L 300 464 L 300 465 L 300 466 L 300 467 L 299 468 L 299 469 L 299 470 L 299 471 L 298 472 L 298 473 L 298 474 L 298 475 L 298 476 L 297 477 L 297 478 L 297 479 L 297 480 L 296 481 L 296 482 L 296 483 L 296 484 L 296 485 L 296 486 L 296 487 L 296 488 L 296 489 L 295 490 L 294 491 L 293 492 L 292 493 L 291 493 L 291 494 L 290 495 L 290 496 L 290 497 L 290 498 L 290 499 L 290 500 L 290 501 L 289 502 L 289 503 L 288 504 L 287 505 L 286 506 L 285 507 L 284 508 L 284 509 L 283 510 L 283 511 L 283 512 L 283 513 L 282 514 L 282 515 L 282 516 L 282 517 L 281 518 L 281 519 L 281 520 L 280 521 L 279 522 L 278 523 L 277 524 L 277 525 L 277 526 L 277 527 L 277 528 L 277 529 L 277 530 L 277 531 L 277 532 L 278 533 L 278 534 L 277 535 L 277 536 L 277 537 L 277 538 L 276 539 L 275 540 L 275 541 L 274 542 L 274 543 L 274 544 L 273 545 L 273 546 L 273 547 L 273 548 L 273 549 L 273 550 L 273 551 L 273 552 L 273 553 L 273 554 L 273 555 L 273 556 L 273 557 L 274 558 L 274 559 L 274 560 L 274 561 L 274 562 L 274 563 L 275 564 L 275 565 L 275 566 L 275 567 L 275 568 L 275 569 L 276 570 L 277 571 L 277 572 L 277 573 L 278 574 L 278 575 L 278 576 L 278 577 L 278 578 L 279 579 L 279 580 L 279 581 L 279 582 L 278 583 L 278 584 L 278 585 L 278 586 L 278 587 L 278 588 L 278 589 L 279 590 L 279 591 L 279 592 L 280 593 L 280 594 L 281 595 L 282 596 L 282 597 L 282 598 L 282 599 L 282 600 L 283 601 L 283 602 L 283 603 L 283 604 L 283 605 L 283 606 L 283 607 L 284 608 L 285 609 L 285 610 L 286 611 L 286 612 L 287 613 L 288 614 L 288 615 L 288 616 L 289 617 L 289 618 L 289 619 L 289 620 L 289 621 L 289 622 L 289 623 L 289 624 L 289 625 L 290 626 L 290 627 L 290 628 L 290 629 L 290 630 L 290 631 L 290 632 L 290 633 L 291 634 L 292 635 L 293 636 L 294 637 L 294 638 L 295 639 L 296 639 L 297 640 L 298 640 L 299 641 L 300 641 L 301 641 L 302 641 L 303 641 L 304 641 L 305 641 L 306 642 L 307 643 L 308 644 L 309 645 L 310 646 L 311 647 L 311 648 L 312 649 L 313 650 L 314 651 L 314 652 L 315 653 L 315 654 L 316 655 L 316 656 L 316 657 L 316 658 L 316 659 L 317 660 L 317 661 L 317 662 L 317 663 L 318 664 L 318 665 L 319 666 L 319 667 L 319 668 L 319 669 L 320 670 L 320 671 L 320 672 L 320 673 L 320 674 L 320 675 L 321 676 L 321 677 L 322 678 L 322 679 L 323 680 L 323 681 L 323 682 L 324 683 L 324 684 L 324 685 L 324 686 L 324 687 L 324 688 L 324 689 L 324 690 L 324 691 L 324 692 L 325 693 L 326 694 L 327 695 L 327 696 L 328 697 L 328 698 L 328 699 L 329 700 L 329 701 L 330 702 L 329 703 L 328 703 L 327 704 L 326 704 L 326 705 L 326 706 L 326 707 L 326 708 L 326 709 L 326 710 L 326 711 L 327 712 L 328 713 L 328 714 L 328 715 L 329 716 L 329 717 L 330 718 L 330 719 L 331 720 L 332 721 L 332 722 L 333 723 L 334 724 L 334 725 L 335 726 L 336 727 L 336 728 L 337 729 L 338 730 L 339 731 L 340 732 L 341 733 L 342 734 L 343 735 L 344 736 L 345 737 L 346 738 L 347 739 L 348 740 L 349 741 L 350 741 L 351 742 L 352 743 L 353 744 L 353 745 L 354 746 L 354 747 L 355 748 L 355 749 L 355 750 L 356 751 L 356 752 L 357 753 L 358 754 L 358 755 L 358 756 L 359 757 L 359 758 L 359 759 L 359 760 L 359 761 L 359 762 L 359 763 L 360 764 L 361 765 L 361 766 L 362 767 L 363 767 L 364 768 L 365 769 L 366 770 L 366 771 L 367 772 L 368 773 L 369 774 L 370 775 L 371 776 L 372 777 L 373 778 L 374 779 L 375 780 L 376 780 L 377 781 L 378 781 L 379 782 L 380 782 L 381 781 L 382 781 L 383 780 L 384 780 L 385 779 L 386 778 L 386 777 L 386 776 L 386 775 L 386 774 L 386 773 L 386 772 L 386 771 L 386 770 L 386 769 L 385 768 L 385 767 L 384 766 L 384 765 L 384 764 L 383 763 L 382 763 L 381 762 L 381 761 L 380 760 L 380 759 L 380 758 L 380 757 L 379 756 L 379 755 L 378 754 L 377 753 L 377 752 L 376 751 L 376 750 L 376 749 L 375 748 L 375 747 L 374 746 L 374 745 L 374 744 L 374 743 L 373 742 L 373 741 L 372 740 L 372 739 L 371 738 L 371 737 L 370 736 L 370 735 L 369 734 L 368 733 L 367 732 L 366 731 L 366 730 L 366 729 L 365 728 L 365 727 L 364 726 L 364 725 L 364 724 L 364 723 L 364 722 L 365 721 L 366 722 L 366 723 L 366 724 L 367 725 L 367 726 L 368 726 L 369 727 L 369 728 L 370 729 L 371 730 L 372 731 L 373 731 L 374 732 L 373 733 L 373 734 L 373 735 L 373 736 L 373 737 L 374 738 L 374 739 L 375 739 L 376 740 L 377 740 L 378 741 L 378 742 L 379 743 L 380 744 L 381 745 L 382 745 L 383 746 L 384 746 L 385 747 L 384 748 L 384 749 L 384 750 L 384 751 L 384 752 L 384 753 L 385 754 L 385 755 L 386 756 L 387 757 L 388 758 L 389 758 L 390 759 L 391 759 L 392 760 L 393 761 L 394 762 L 395 763 L 395 764 L 396 765 L 397 766 L 398 766 L 399 767 L 400 768 L 400 769 L 400 770 L 401 771 L 402 772 L 403 773 L 404 774 L 404 775 L 405 776 L 406 777 L 407 778 L 408 779 L 409 780 L 410 781 L 411 782 L 412 783 L 412 784 L 413 785 L 414 786 L 415 787 L 415 788 L 416 789 L 417 790 L 417 791 L 418 792 L 418 793 L 419 794 L 419 795 L 420 796 L 420 797 L 420 798 L 420 799 L 419 800 L 418 801 L 417 801 L 416 802 L 415 802 L 414 803 L 414 804 L 414 805 L 414 806 L 414 807 L 414 808 L 414 809 L 414 810 L 415 811 L 415 812 L 416 813 L 416 814 L 416 815 L 416 816 L 417 817 L 418 818 L 418 819 L 419 820 L 419 821 L 420 822 L 421 823 L 421 824 L 422 825 L 423 826 L 424 826 L 425 827 L 426 828 L 427 829 L 428 830 L 429 831 L 430 831 L 431 832 L 432 833 L 433 833 L 434 834 L 435 834 L 436 835 L 437 836 L 438 837 L 439 838 L 440 838 L 441 839 L 442 840 L 443 840 L 444 841 L 445 841 L 446 842 L 447 842 L 448 843 L 449 843 L 450 844 L 451 844 L 452 845 L 453 845 L 454 846 L 455 846 L 456 847 L 457 847 L 458 848 L 459 848 L 460 849 L 461 849 L 462 850 L 463 850 L 464 851 L 465 852 L 466 852 L 467 853 L 468 853 L 469 854 L 470 854 L 471 855 L 472 856 L 473 857 L 474 857 L 475 858 L 476 859 L 477 859 L 478 860 L 479 860 L 480 861 L 481 861 L 482 861 L 483 862 L 484 862 L 485 862 L 486 863 L 487 863 L 488 864 L 489 865 L 490 865 L 491 866 L 492 866 L 493 867 L 494 867 L 495 868 L 496 868 L 497 868 L 498 869 L 499 869 L 500 869 L 501 870 L 502 870 L 503 871 L 504 871 L 505 872 L 506 872 L 507 873 L 508 873 L 509 873 L 510 873 L 511 874 L 512 874 L 513 874 L 514 874 L 515 875 L 516 875 L 517 875 L 518 875 L 519 875 L 520 875 L 521 875 L 522 875 L 523 874 L 524 874 L 525 874 L 526 873 L 527 873 L 528 873 L 529 873 L 530 872 L 531 872 L 532 871 L 533 871 L 534 870 L 535 870 L 536 870 L 537 870 L 538 870 L 539 870 L 540 870 L 541 871 L 542 871 L 543 871 L 544 872 L 545 873 L 546 874 L 547 874 L 548 875 L 549 876 L 550 877 L 550 878 L 551 879 L 552 880 L 553 881 L 553 882 L 554 883 L 555 884 L 556 884 L 557 885 L 558 886 L 559 886 L 560 887 L 561 888 L 562 888 L 563 889 L 564 889 L 565 890 L 566 890 L 567 891 L 568 891 L 569 891 L 570 891 L 571 892 L 572 892 L 573 892 L 574 893 L 575 893 L 576 893 L 577 893 L 578 893 L 579 894 L 580 894 L 581 894 L 582 895 L 583 895 L 584 895 L 585 895 L 586 895 L 587 895 L 588 896 L 589 896 L 590 896 L 591 897 L 592 897 L 593 897 L 594 897 L 595 898 L 596 898 L 597 899 L 598 899 L 599 900 L 600 900 L 601 901 L 602 901 L 603 901 L 604 901 L 605 901 L 606 902 L 607 902 L 608 902 L 609 903 L 610 904 L 611 904 L 612 905 L 613 905 L 614 906 L 615 907 L 615 908 L 616 909 L 617 910 L 618 910 L 619 911 L 620 912 L 621 913 L 622 914 L 623 915 L 624 916 L 625 917 L 626 918 L 627 919 L 628 920 L 629 921 L 629 922 L 630 923 L 630 924 L 631 925 L 631 926 L 632 927 L 632 928 L 632 929 L 632 930 L 632 931 L 633 931 L 634 932 L 635 932 L 636 933 L 637 933 L 638 934 L 639 935 L 639 936 L 640 937 L 640 938 L 641 939 L 641 940 L 642 941 L 643 941 L 644 942 L 645 942 L 646 943 L 647 943 L 648 944 L 649 945 L 650 946 L 651 947 L 652 947 L 653 948 L 654 948 L 655 949 L 656 949 L 657 950 L 658 951 L 658 952 L 659 953 L 659 954 L 660 955 L 661 955 L 662 956 L 663 956 L 664 957 L 665 957 L 666 957 L 667 957 L 668 957 L 669 957 L 670 958 L 671 958 L 672 959 L 673 959 L 674 960 L 675 960 L 676 961 L 677 961 L 678 961 L 679 962 L 680 963 L 681 963 L 682 964 L 683 964 L 684 965 L 685 965 L 686 966 L 687 966 L 688 966 L 689 966 L 690 966 L 691 967 L 692 967 L 693 968 L 694 968 L 695 968 L 696 967 L 697 967 L 698 966 L 699 966 L 700 965 L 701 965 L 701 964 L 702 963 L 702 962 L 702 961 L 702 960 L 702 959 L 702 958 L 701 958 L 700 957 L 699 957 L 698 956 L 697 956 L 696 956 L 695 956 L 694 955 L 695 954 L 696 953 L 697 953 L 698 952 L 699 951 L 700 950 L 701 950 L 702 949 L 703 949 L 704 948 L 705 948 L 706 948 L 707 949 L 708 949 L 709 950 L 709 951 L 709 952 L 709 953 L 709 954 L 710 955 L 710 956 L 711 957 L 712 958 L 712 959 L 712 960 L 712 961 L 713 962 L 714 962 L 715 963 L 716 963 L 717 964 L 718 964 L 719 963 L 720 963 L 721 962 L 722 962 L 723 961 L 724 961 L 725 960 L 725 959 L 725 958 L 726 957 L 726 956 L 726 955 L 726 954 L 726 953 L 726 952 L 726 951 L 726 950 L 726 949 L 726 948 L 727 947 L 728 946 L 729 945 L 729 944 L 729 943 L 729 942 L 729 941 L 729 940 L 729 939 L 729 938 L 728 937 L 728 936 L 727 936 L 726 935 L 725 935 L 724 934 L 723 934 L 722 934 L 721 935 L 720 935 L 719 934 L 718 934 L 717 933 L 716 933 L 715 932 L 714 932 L 713 932 L 712 932 L 711 931 L 710 931 L 709 930 L 708 930 L 707 930 L 706 930 L 705 930 L 704 930 L 703 930 L 702 931 L 701 931 L 700 932 L 699 932 L 698 933 L 697 933 L 696 933 L 695 933 L 694 934 L 693 934 L 692 935 L 691 935 L 691 936 L 690 937 L 689 938 L 689 939 L 688 940 L 687 939 L 686 939 L 685 938 L 684 938 L 683 938 L 682 938 L 681 937 L 680 936 L 679 936 L 678 935 L 677 934 L 677 933 L 676 932 L 675 931 L 674 931 L 673 930 L 672 930 L 671 929 L 670 928 L 669 927 L 669 926 L 668 925 L 667 924 L 666 923 L 665 922 L 665 921 L 664 920 L 664 919 L 664 918 L 664 917 L 664 916 L 665 915 L 665 914 L 665 913 L 665 912 L 665 911 L 665 910 L 665 909 L 665 908 L 665 907 L 665 906 L 664 905 L 663 904 L 664 903 L 664 902 L 665 901 L 665 900 L 665 899 L 665 898 L 665 897 L 665 896 L 665 895 L 665 894 L 665 893 L 665 892 L 665 891 L 665 890 L 665 889 L 665 888 L 666 887 L 666 886 L 666 885 L 666 884 L 666 883 L 667 882 L 667 881 L 667 880 L 667 879 L 667 878 L 667 877 L 667 876 L 667 875 L 666 874 L 665 874 L 664 873 L 663 872 L 662 871 L 661 870 L 660 869 L 660 868 L 659 868 L 658 867 L 657 867 L 656 866 L 655 866 L 654 865 L 653 865 L 652 864 L 651 863 L 650 862 L 649 862 L 648 861 L 647 861 L 646 860 L 645 860 L 644 860 L 643 860 L 642 860 L 641 860 L 640 861 L 639 861 L 638 861 L 637 861 L 636 862 L 635 862 L 634 862 L 633 862 L 632 862 L 631 862 L 630 863 L 629 863 L 628 863 L 627 862 L 626 862 L 625 861 L 624 862 L 623 862 L 622 863 L 621 863 L 620 864 L 619 864 L 618 863 L 617 863 L 616 862 L 615 863 L 614 862 L 613 861 L 612 861 L 611 860 L 612 859 L 613 858 L 614 857 L 615 856 L 615 855 L 616 854 L 616 853 L 616 852 L 616 851 L 616 850 L 616 849 L 616 848 L 616 847 L 615 846 L 616 845 L 617 844 L 618 844 L 619 843 L 619 842 L 620 841 L 620 840 L 620 839 L 620 838 L 620 837 L 620 836 L 620 835 L 620 834 L 620 833 L 619 832 L 619 831 L 619 830 L 619 829 L 620 828 L 621 828 L 621 827 L 621 826 L 621 825 L 621 824 L 621 823 L 622 822 L 622 821 L 622 820 L 622 819 L 623 818 L 624 818 L 625 817 L 626 817 L 627 816 L 627 815 L 628 814 L 629 813 L 629 812 L 629 811 L 629 810 L 629 809 L 629 808 L 629 807 L 629 806 L 629 805 L 628 804 L 627 803 L 626 803 L 625 802 L 624 802 L 623 801 L 622 801 L 621 802 L 620 802 L 619 801 L 618 801 L 617 801 L 616 801 L 615 801 L 614 801 L 613 801 L 612 801 L 611 801 L 610 802 L 609 802 L 608 802 L 607 803 L 606 802 L 605 802 L 604 802 L 603 802 L 602 802 L 601 803 L 600 803 L 599 804 L 598 804 L 597 805 L 596 805 L 595 805 L 594 805 L 593 806 L 592 806 L 591 807 L 590 807 L 589 807 L 588 807 L 587 808 L 586 808 L 585 809 L 584 809 L 583 810 L 582 811 L 581 812 L 580 813 L 580 814 L 580 815 L 580 816 L 580 817 L 579 818 L 579 819 L 579 820 L 579 821 L 579 822 L 579 823 L 578 824 L 578 825 L 578 826 L 578 827 L 577 828 L 576 829 L 575 830 L 574 831 L 573 831 L 572 832 L 571 832 L 570 833 L 569 833 L 568 834 L 567 835 L 566 835 L 565 835 L 564 834 L 563 834 L 562 834 L 561 834 L 560 834 L 559 834 L 558 834 L 557 834 L 556 835 L 555 835 L 554 836 L 553 836 L 552 837 L 551 837 L 550 838 L 549 838 L 548 838 L 547 839 L 546 839 L 545 838 L 544 838 L 543 837 L 542 837 L 541 836 L 540 836 L 539 836 L 538 836 L 537 835 L 536 834 L 535 833 L 534 832 L 533 831 L 533 830 L 532 829 L 531 828 L 530 827 L 529 827 L 528 826 L 527 825 L 527 824 L 526 823 L 526 822 L 526 821 L 526 820 L 525 819 L 525 818 L 524 817 L 523 816 L 522 815 L 522 814 L 521 813 L 520 812 L 520 811 L 519 810 L 519 809 L 518 808 L 517 807 L 517 806 L 517 805 L 517 804 L 516 803 L 516 802 L 515 801 L 515 800 L 514 799 L 514 798 L 514 797 L 514 796 L 514 795 L 514 794 L 514 793 L 514 792 L 514 791 L 514 790 L 514 789 L 514 788 L 514 787 L 514 786 L 514 785 L 514 784 L 514 783 L 515 782 L 515 781 L 515 780 L 516 779 L 516 778 L 516 777 L 517 776 L 518 775 L 519 774 L 519 773 L 519 772 L 519 771 L 519 770 L 519 769 L 519 768 L 519 767 L 520 766 L 521 765 L 521 764 L 522 763 L 522 762 L 522 761 L 522 760 L 522 759 L 522 758 L 521 757 L 521 756 L 521 755 L 520 754 L 520 753 L 520 752 L 520 751 L 520 750 L 520 749 L 520 748 L 520 747 L 520 746 L 520 745 L 520 744 L 520 743 L 520 742 L 519 741 L 520 740 L 521 740 L 521 739 L 522 738 L 523 737 L 524 736 L 525 735 L 525 734 L 526 733 L 527 732 L 528 732 L 529 731 L 530 732 L 531 732 L 532 731 L 533 731 L 534 730 L 535 730 L 536 729 L 536 728 L 537 727 L 538 727 L 539 726 L 540 726 L 541 725 L 542 724 L 543 723 L 544 722 L 544 721 L 545 720 L 546 719 L 547 720 L 548 720 L 549 720 L 550 720 L 551 720 L 552 720 L 553 720 L 554 719 L 555 719 L 556 719 L 557 720 L 558 720 L 559 720 L 560 720 L 561 721 L 562 721 L 563 721 L 564 722 L 565 722 L 566 723 L 567 723 L 568 723 L 569 723 L 570 723 L 571 722 L 572 722 L 573 723 L 574 723 L 575 724 L 576 724 L 577 725 L 578 725 L 579 725 L 580 726 L 581 726 L 582 726 L 583 726 L 584 726 L 585 725 L 586 725 L 587 726 L 588 726 L 589 726 L 590 726 L 591 726 L 592 725 L 593 726 L 594 726 L 595 726 L 596 726 L 597 725 L 598 725 L 599 724 L 600 724 L 600 723 L 600 722 L 600 721 L 600 720 L 600 719 L 599 718 L 598 717 L 598 716 L 597 715 L 597 714 L 598 713 L 599 712 L 600 712 L 601 713 L 602 713 L 603 714 L 604 713 L 605 713 L 606 712 L 607 712 L 608 711 L 609 711 L 610 711 L 611 711 L 612 711 L 613 711 L 614 711 L 615 711 L 616 711 L 617 711 L 618 711 L 619 711 L 620 711 L 621 711 L 622 712 L 623 713 L 624 714 L 624 715 L 625 716 L 626 716 L 627 717 L 628 717 L 629 718 L 630 718 L 631 719 L 632 719 L 633 719 L 634 719 L 635 719 L 636 718 L 637 718 L 638 717 L 639 717 L 640 716 L 641 716 L 641 715 L 642 714 L 643 713 L 644 714 L 645 715 L 646 715 L 647 716 L 648 716 L 649 717 L 650 718 L 650 719 L 651 720 L 652 721 L 652 722 L 653 723 L 654 724 L 654 725 L 654 726 L 654 727 L 654 728 L 654 729 L 654 730 L 654 731 L 654 732 L 654 733 L 654 734 L 655 735 L 656 736 L 656 737 L 656 738 L 656 739 L 656 740 L 657 741 L 657 742 L 658 743 L 659 744 L 659 745 L 660 746 L 660 747 L 661 748 L 662 749 L 663 749 L 664 750 L 665 751 L 665 752 L 666 753 L 666 754 L 666 755 L 666 756 L 667 757 L 667 758 L 668 759 L 668 760 L 669 760 L 670 761 L 671 761 L 672 762 L 673 763 L 673 764 L 673 765 L 673 766 L 673 767 L 673 768 L 673 769 L 674 769 L 675 770 L 676 770 L 677 771 L 678 771 L 679 771 L 680 770 L 681 770 L 682 769 L 683 769 L 683 768 L 684 767 L 685 767 L 686 766 L 687 766 L 688 765 L 688 764 L 689 763 L 689 762 L 690 761 L 691 760 L 691 759 L 692 758 L 692 757 L 692 756 L 692 755 L 692 754 L 692 753 L 692 752 L 692 751 L 692 750 L 692 749 L 692 748 L 692 747 L 692 746 L 692 745 L 692 744 L 692 743 L 692 742 L 692 741 L 691 740 L 691 739 L 690 738 L 690 737 L 690 736 L 690 735 L 689 734 L 689 733 L 688 732 L 688 731 L 687 730 L 686 729 L 686 728 L 686 727 L 685 726 L 685 725 L 685 724 L 685 723 L 684 722 L 684 721 L 684 720 L 684 719 L 684 718 L 683 717 L 683 716 L 682 715 L 682 714 L 681 713 L 680 712 L 680 711 L 679 710 L 678 709 L 678 708 L 678 707 L 677 706 L 677 705 L 677 704 L 677 703 L 676 702 L 676 701 L 676 700 L 676 699 L 675 698 L 675 697 L 675 696 L 676 695 L 676 694 L 677 693 L 677 692 L 678 691 L 678 690 L 679 689 L 679 688 L 679 687 L 680 686 L 681 685 L 682 684 L 683 683 L 684 683 L 685 682 L 686 681 L 686 680 L 687 679 L 688 678 L 689 677 L 690 676 L 691 675 L 692 675 L 693 674 L 694 673 L 694 672 L 695 671 L 695 670 L 695 669 L 696 668 L 696 667 L 697 666 L 698 665 L 699 664 L 700 663 L 701 663 L 702 662 L 703 662 L 704 661 L 705 660 L 706 660 L 707 659 L 708 658 L 709 657 L 710 656 L 711 655 L 712 654 L 713 653 L 713 652 L 714 651 L 715 650 L 716 650 L 717 649 L 718 648 L 719 647 L 720 646 L 721 645 L 722 644 L 723 644 L 724 643 L 725 642 L 725 641 L 725 640 L 726 639 L 726 638 L 727 637 L 727 636 L 727 635 L 727 634 L 727 633 L 727 632 L 727 631 L 727 630 L 726 629 L 726 628 L 726 627 L 725 626 L 724 625 L 724 624 L 723 623 L 722 622 L 722 621 L 722 620 L 723 619 L 723 618 L 724 617 L 724 616 L 724 615 L 724 614 L 725 613 L 726 612 L 726 611 L 726 610 L 727 609 L 727 608 L 728 607 L 728 606 L 728 605 L 729 604 L 729 603 L 730 602 L 730 601 L 731 600 L 731 599 L 732 598 L 732 597 L 732 596 L 733 595 L 733 594 L 733 593 L 733 592 L 733 591 L 733 590 L 734 589 L 735 588 L 735 587 L 736 586 L 736 585 L 737 584 L 737 583 L 737 582 L 738 581 L 739 580 L 739 579 L 740 578 L 741 577 L 742 576 L 742 575 L 743 574 L 744 573 L 745 573 L 746 572 L 747 572 L 748 571 L 749 570 L 750 570 L 751 569 L 751 568 L 752 567 L 752 566 L 753 565 L 754 565 L 755 565 L 756 565 L 757 565 L 758 565 L 759 564 L 760 564 L 761 563 L 762 563 L 763 562 L 763 561 L 764 560 L 764 559 L 765 558 L 766 557 L 767 556 L 767 555 L 767 554 L 767 553 L 767 552 L 767 551 L 767 550 L 766 550 L 765 549 L 764 549 L 763 548 L 762 548 L 761 547 L 761 546 L 761 545 L 761 544 L 761 543 L 761 542 L 760 541 L 760 540 L 760 539 L 761 538 L 762 537 L 763 536 L 763 535 L 764 534 L 765 534 L 766 533 L 767 532 L 768 531 L 769 530 L 770 529 L 771 528 L 772 527 L 773 526 L 774 526 L 775 525 L 776 525 L 777 524 L 778 524 L 779 523 L 780 523 L 781 522 L 782 521 L 783 520 L 784 519 L 785 518 L 786 518 L 787 517 L 788 518 L 788 519 L 788 520 L 789 521 L 790 522 L 791 523 L 792 524 L 793 525 L 794 526 L 795 526 L 796 527 L 797 527 L 798 528 L 799 528 L 800 528 L 801 528 L 802 528 L 803 528 L 804 527 L 805 527 L 806 526 L 807 526 L 808 525 L 809 524 L 810 523 L 810 522 L 810 521 L 811 520 L 811 519 L 811 518 L 812 517 L 813 516 L 814 515 L 815 514 L 816 514 L 817 513 L 818 512 L 818 511 L 819 510 L 820 510 L 821 509 L 822 508 L 823 507 L 824 506 L 825 505 L 826 504 L 827 503 L 828 503 L 829 502 L 830 502 L 831 501 L 832 500 L 832 499 L 833 498 L 833 497 L 833 496 L 834 495 L 834 494 L 834 493 L 835 492 L 836 491 L 837 490 L 838 490 L 839 489 L 840 488 L 840 487 L 841 486 L 842 485 L 843 484 L 844 483 L 845 482 L 846 481 L 846 480 L 846 479 L 846 478 L 846 477 L 846 476 L 846 475 L 846 474 L 845 473 L 844 473 L 843 472 L 842 472 L 841 471 L 840 471 L 839 470 L 839 469 L 839 468 L 839 467 L 838 467 L 837 466 L 836 466 L 835 465 L 834 465 L 833 465 L 832 466 L 831 466 L 830 467 L 829 467 L 829 468 L 828 469 L 827 470 L 826 471 L 825 472 L 825 473 L 824 474 L 824 475 L 824 476 L 824 477 L 824 478 L 823 479 L 822 478 L 821 478 L 820 477 L 819 478 L 818 478 L 817 479 L 816 479 L 815 480 L 814 481 L 813 481 L 812 482 L 811 482 L 810 482 L 809 482 L 808 481 L 807 481 L 806 480 L 805 480 L 804 479 L 803 478 L 802 477 L 801 476 L 801 475 L 801 474 L 800 473 L 800 472 L 799 471 L 798 470 L 798 469 L 798 468 L 798 467 L 798 466 L 797 465 L 797 464 L 797 463 L 797 462 L 796 461 L 797 460 L 798 460 L 799 460 L 800 460 L 801 459 L 802 459 L 803 458 L 804 458 L 804 457 L 804 456 L 804 455 L 804 454 L 805 453 L 806 453 L 807 452 L 808 452 L 809 451 L 810 451 L 811 451 L 812 450 L 813 450 L 814 449 L 815 449 L 816 448 L 817 447 L 818 446 L 819 446 L 819 445 L 819 444 L 819 443 L 819 442 L 819 441 L 818 441 L 817 440 L 816 440 L 815 439 L 814 439 L 813 439 L 812 438 L 813 437 L 814 437 L 815 437 L 816 437 L 817 436 L 818 436 L 819 435 L 820 435 L 821 434 L 822 434 L 823 433 L 824 432 L 824 431 L 825 430 L 825 429 L 825 428 L 826 427 L 826 426 L 827 425 L 827 424 L 828 423 L 828 422 L 829 421 L 830 421 L 831 420 L 832 419 L 833 418 L 834 417 L 834 416 L 835 415 L 836 416 L 836 417 L 836 418 L 836 419 L 836 420 L 836 421 L 836 422 L 836 423 L 836 424 L 836 425 L 836 426 L 836 427 L 836 428 L 836 429 L 836 430 L 836 431 L 836 432 L 836 433 L 836 434 L 836 435 L 837 436 L 837 437 L 836 438 L 836 439 L 835 440 L 835 441 L 835 442 L 835 443 L 835 444 L 835 445 L 835 446 L 835 447 L 835 448 L 835 449 L 835 450 L 835 451 L 835 452 L 835 453 L 835 454 L 835 455 L 835 456 L 836 457 L 837 457 L 838 458 L 839 458 L 840 459 L 841 459 L 842 459 L 843 458 L 844 458 L 845 457 L 846 457 L 847 457 L 848 456 L 849 456 L 850 455 L 851 455 L 852 454 L 853 454 L 854 453 L 855 453 L 856 453 L 857 453 L 858 452 L 859 452 L 860 452 L 861 451 L 862 451 L 863 450 L 864 450 L 865 449 L 866 448 L 867 448 L 868 449 L 868 450 L 868 451 L 868 452 L 869 453 L 870 454 L 871 454 L 872 455 L 873 455 L 874 456 L 875 456 L 876 456 L 877 456 L 878 455 L 879 455 L 880 454 L 881 454 L 882 453 L 882 452 L 882 451 L 883 450 L 883 449 L 884 448 L 885 448 L 886 448 L 887 448 L 888 449 L 889 449 L 890 450 L 891 450 L 892 451 L 893 451 L 894 452 L 895 452 L 896 451 L 897 451 L 898 450 L 899 450 L 900 449 L 901 449 L 901 448 L 902 447 L 902 446 L 902 445 L 902 444 L 902 443 L 902 442 L 902 441 L 902 440 L 902 439 L 902 438 L 902 437 L 901 436 L 901 435 L 900 434 L 899 433 L 898 432 L 897 432 L 896 431 L 895 430 L 895 429 L 895 428 L 894 427 L 893 427 L 892 426 L 892 425 L 891 424 L 891 423 L 891 422 L 890 421 L 889 420 L 888 419 L 887 418 L 886 417 L 885 417 L 884 416 L 883 415 L 883 414 L 882 413 L 882 412 L 881 412 L 880 411 L 879 411 L 878 410 L 877 410 L 876 409 L 875 409 L 874 408 L 873 408 L 872 408 L 871 408 L 870 409 L 869 409 L 868 410 L 867 410 L 866 410 L 865 409 L 864 409 L 863 409 L 862 409 L 861 410 L 860 409 L 859 409 L 858 408 L 858 407 L 858 406 L 858 405 L 858 404 L 858 403 L 858 402 L 858 401 L 858 400 L 858 399 L 857 398 L 857 397 L 856 396 L 855 396 L 854 395 L 853 395 L 852 394 L 852 393 L 852 392 L 852 391 L 852 390 L 852 389 L 851 388 L 851 387 L 851 386 L 851 385 L 851 384 L 850 383 L 850 382 L 850 381 L 849 380 L 848 380 L 847 379 L 847 378 L 846 377 L 845 376 L 844 375 L 843 374 L 842 373 L 841 373 L 840 372 L 839 372 L 838 371 L 837 371 L 836 372 L 835 372 L 834 371 L 833 370 L 832 369 L 831 369 L 830 368 L 829 368 L 828 367 L 827 367 L 826 366 L 825 365 L 824 365 L 823 364 L 822 364 L 821 363 L 820 363 L 819 362 L 818 362 L 817 362 L 816 361 L 815 361 L 814 360 L 813 360 L 812 359 L 811 359 L 810 359 L 809 359 L 808 359 L 807 358 L 806 358 L 805 358 L 804 357 L 803 357 L 802 358 L 801 358 L 800 359 L 799 359 L 798 359 L 797 359 L 796 358 L 795 358 L 794 357 L 793 357 L 792 356 L 791 355 L 790 355 L 789 354 L 788 354 L 787 353 L 786 352 L 785 352 L 784 351 L 783 351 L 782 350 L 781 350 L 780 349 L 779 349 L 778 348 L 777 347 L 777 346 L 777 345 L 777 344 L 777 343 L 777 342 L 776 341 L 775 340 L 774 339 L 773 339 L 772 338 L 771 337 L 771 336 L 770 335 L 769 334 L 768 334 L 767 333 L 766 332 L 765 331 L 764 331 L 763 330 L 762 330 L 761 329 L 760 328 L 760 327 L 760 326 L 759 326 L 758 325 L 757 325 L 756 324 L 755 323 L 754 323 L 753 322 L 752 321 L 752 320 L 751 319 L 750 318 L 749 317 L 748 316 L 747 315 L 746 315 L 745 314 L 744 313 L 743 312 L 742 311 L 741 310 L 740 309 L 740 308 L 740 307 L 739 306 L 739 305 L 738 304 L 738 303 L 737 302 L 736 301 L 735 301 L 734 300 L 733 300 L 732 299 L 732 298 L 732 297 L 732 296 L 732 295 L 731 294 L 731 293 L 730 292 L 730 291 L 729 290 L 729 289 L 728 289 L 727 288 L 727 287 L 727 286 L 727 285 L 727 284 L 727 283 L 727 282 L 727 281 L 727 280 L 726 279 L 725 278 L 724 277 L 724 276 L 724 275 L 724 274 L 724 273 L 724 272 L 723 271 L 723 270 L 722 269 L 722 268 L 721 267 L 720 266 L 719 265 L 718 264 L 717 263 L 716 263 L 715 262 L 715 261 L 716 260 L 717 260 L 718 259 L 719 259 L 720 258 L 721 257 L 721 256 L 721 255 L 721 254 L 721 253 L 721 252 L 720 251 L 721 250 L 722 249 L 722 248 L 722 247 L 722 246 L 722 245 L 723 244 L 723 243 L 723 242 L 723 241 L 723 240 L 722 239 L 722 238 L 723 237 L 723 236 L 723 235 L 723 234 L 723 233 L 723 232 L 723 231 L 723 230 L 723 229 L 723 228 L 722 227 L 722 226 L 721 225 L 720 224 L 719 224 L 718 223 L 717 223 L 716 222 L 715 222 L 714 222 L 713 221 L 712 221 L 711 222 L 710 222 L 709 221 L 708 220 L 707 219 L 706 219 L 705 218 L 704 218 L 703 217 L 702 217 L 701 217 L 700 217 L 699 217 L 698 216 L 697 216 L 696 215 L 695 215 L 694 215 L 693 215 L 692 215 L 691 216 L 690 215 L 689 215 L 688 214 L 687 214 L 686 213 L 685 213 L 684 213 L 683 213 L 682 212 L 681 212 L 680 211 L 679 211 L 678 210 L 677 209 L 677 208 L 677 207 L 677 206 L 677 205 L 677 204 L 677 203 L 677 202 L 677 201 L 677 200 L 677 199 L 677 198 L 677 197 L 676 196 L 675 195 L 674 195 L 673 194 L 672 193 L 672 192 L 671 191 L 671 190 L 670 189 L 669 188 L 668 188 L 667 187 L 666 187 L 665 186 L 664 186 L 663 185 L 662 185 L 661 185 L 660 184 L 659 184 L 658 183 L 657 183 L 656 183 L 655 183 L 654 183 L 653 183 L 652 183 L 651 183 L 650 183 L 649 183 L 648 182 L 647 182 L 646 181 L 645 181 L 644 180 L 643 179 L 642 179 L 641 178 L 640 178 L 639 177 L 638 177 L 637 177 L 636 176 L 635 177 L 634 177 L 633 178 L 632 178 L 631 178 L 630 177 L 629 176 L 629 175 L 628 174 L 627 173 L 626 173 L 625 172 L 624 172 L 623 171 L 622 170 L 622 169 L 621 168 L 620 167 L 620 166 L 619 165 L 618 165 L 617 164 L 616 163 L 615 163 L 614 162 L 613 162 L 612 161 L 611 161 L 610 161 L 609 161 L 608 161 L 607 160 L 606 160 L 605 160 L 604 160 L 603 160 L 602 161 L 601 161 L 600 160 L 601 159 L 602 158 L 602 157 L 602 156 L 603 155 L 603 154 L 603 153 L 603 152 L 603 151 L 603 150 L 603 149 L 603 148 L 602 147 L 602 146 L 601 145 L 601 144 L 600 144 L 599 143 L 599 142 L 600 141 L 600 140 L 601 139 L 602 138 L 603 138 L 603 137 L 604 136 L 604 135 L 604 134 L 604 133 L 604 132 L 604 131 L 604 130 L 603 129 L 602 128 L 602 127 L 602 126 L 602 125 L 601 124 L 602 123 L 602 122 L 602 121 L 602 120 L 602 119 L 603 118 L 604 117 L 605 117 L 606 116 L 607 115 L 608 114 L 608 113 L 608 112 L 608 111 L 608 110 L 608 109 L 608 108 L 608 107 L 608 106 L 608 105 L 607 104 L 607 103 L 607 102 L 607 101 L 606 100 L 607 99 L 608 99 L 609 98 L 610 98 L 610 97 L 611 96 L 611 95 L 611 94 L 612 93 L 613 93 L 614 92 L 615 91 L 615 90 L 615 89 L 615 88 L 616 87 L 616 86 L 616 85 L 616 84 L 616 83 L 616 82 L 616 81 L 617 80 L 617 79 L 618 78 L 619 77 L 620 76 L 620 75 L 620 74 L 621 73 L 621 72 L 621 71 L 621 70 L 621 69 L 621 68 L 621 67 L 621 66 L 622 65 L 622 64 L 623 63 L 623 62 L 623 61 L 623 60 L 623 59 L 623 58 L 622 57 L 621 56 L 620 55 L 619 54 L 618 54 L 617 53 L 616 53 L 615 52 L 614 52 L 613 52 L 612 52 L 611 52 L 610 52 L 609 52 L 608 52 L 607 52 L 606 53 L 605 53 L 604 53 L 603 53 L 602 52 L 601 52 L 600 52 L 599 52 L 598 52 L 597 52 L 596 52 L 595 52 L 594 52 L 593 52 L 592 53 L 591 53 L 590 53 L 589 53 L 588 52 Z" fill="none" stroke="black" stroke-width="2"/>
</svg>
